<?xml version="1.0" encoding="UTF-8" standalone="no"?>
<svg
   version="1.1"
   id="svg64"
   width="397.31802"
   height="467.50037"
   viewBox="-62.83 -4.325 520.371 478.64472"
   sodipodi:docname="Javascript-logo.svg"
   inkscape:version="1.1.1 (3bf5ae0d25, 2021-09-20)"
   xmlns:inkscape="http://www.inkscape.org/namespaces/inkscape"
   xmlns:sodipodi="http://sodipodi.sourceforge.net/DTD/sodipodi-0.dtd"
   xmlns="http://www.w3.org/2000/svg"
   xmlns:svg="http://www.w3.org/2000/svg">
  <defs
     id="defs29" />
  <sodipodi:namedview
     id="namedview27"
     pagecolor="#ffffff"
     bordercolor="#666666"
     borderopacity="1.0"
     inkscape:pageshadow="2"
     inkscape:pageopacity="0"
     inkscape:pagecheckerboard="true"
     showgrid="false"
     height="467.50037px"
     inkscape:zoom="1.022429"
     inkscape:cx="245.98286"
     inkscape:cy="280.21507"
     inkscape:window-width="1920"
     inkscape:window-height="1017"
     inkscape:window-x="-8"
     inkscape:window-y="-8"
     inkscape:window-maximized="1"
     inkscape:current-layer="svg64" />
  <path
     id="path-1"
     d="M 118.98131,61.792667 V 31.447891 h 17.99272 13.04155 v -8.395435 -33.543459 h 21.83568 19.62937 V 75.763304 H 147.8934 118.98131 Z m 71.08734,2.768095 0.13837,-22.943085 h 17.41464 c 7.90201,0 0.0727,2.423102 0.0727,1.994216 -5.7586,-2.135479 -8.49241,11.415231 -17.48733,1.28993 L 190.06872,6.294061 v -16.785064 h 32.93179 50.50471 c -0.33896,30.918171 -0.14655,58.664668 -0.14655,85.735999 l -49.78355,0.518307 h -33.50639 z"
     style="fill:#ffffff;stroke-width:1.19937"
     sodipodi:nodetypes="ccccccccccccccscccccccccc" />
  <path
     style="fill:#ffffff;stroke-width:1.07898"
     d="m 38.66668,100.06792 0.05058,4.04619 c 0.02788,2.22539 6.4752,75.90685 14.327582,163.73594 l 14.277012,159.68978 64.168306,17.96599 c 35.2925,9.88128 64.89664,18.01574 65.7868,18.07821 0.89015,0.0625 30.88523,-7.99033 66.65608,-17.89488 57.35092,-15.8798 65.09322,-18.27153 65.50387,-20.23722 0.57213,-2.73859 28.65712,-319.56653 28.62831,-322.9563 l -0.0206,-2.42771 H 198.35488 Z"
     id="path118" />
  <path
     id="path88"
     d="m 118.55912,467.32816 -76.570508,-20.63819 -1.00053,-5.46159 C 40.09882,436.37393 6.8940248,78.761658 6.8940248,74.036308 c 0,-1.709745 19.3873302,-1.904272 190.1498152,-1.904272 180.24942,0 190.148,0.112528 190.13443,2.153754 -0.0606,8.817397 -34.42968,371.16461 -35.27461,371.88603 -1.06657,0.91157 -149.27005,40.72506 -154.22205,41.43078 -1.40399,0.19976 -37.0088,-8.92382 -79.12249,-20.27444 z m 126.76624,-72.9241 c 25.73609,-6.84422 47.1643,-12.79692 47.61841,-13.22872 0.45323,-0.43092 3.46478,-29.85598 6.69163,-65.389 3.22686,-35.53305 6.19315,-66.95919 6.59119,-69.83523 l 0.72372,-5.22955 H 251.3584 195.76739 v 22.76489 22.76578 h 30.01414 30.01413 l -0.59706,2.76874 c -0.32838,1.52308 -1.60484,14.6096 -2.83604,29.08137 -1.30541,15.33449 -2.85324,26.90405 -3.70902,27.72926 -0.80786,0.77898 -13.03767,4.39039 -27.17809,8.02447 l -25.70806,6.6078 v 23.19234 c 0,15.82998 0.43875,23.19234 1.38229,23.19234 0.7599,0 22.43958,-5.59941 48.17568,-12.44449 z m 60.89309,-182.29369 c -0.84311,-6.03034 -8.35795,-86.90562 -8.35795,-89.95523 0,-1.85281 -4.41736,-2.03076 -50.40833,-2.03076 h -50.40833 v 23.80643 23.80559 l 22.65127,0.84178 c 12.4587,0.4632 25.57055,1.16803 29.13663,1.56582 l 6.48537,0.72402 1.57407,18.62139 c 0.86574,10.24188 1.89702,20.69838 2.29236,23.23596 l 0.71828,4.61455 h 23.52424 23.52425 z"
     style="fill:#ffffff;stroke-width:1.18445" />
  <path
     id="path80"
     d="M 129.99001,442.36989 65.821633,424.40404 51.544281,264.71505 C 43.692263,176.88542 37.24508,103.2045 37.216756,100.9791 l -0.05098,-4.04618 H 196.85557 356.54456 l 0.021,2.427708 c 0.0283,3.389892 -28.05702,320.217932 -28.62915,322.956392 -0.41028,1.96644 -8.15306,4.35773 -65.50361,20.23737 -35.77067,9.90505 -65.76581,17.95777 -66.65598,17.89545 -0.89016,-0.0631 -30.49444,-8.19837 -65.78684,-18.07995 z M 237.72523,380.2675 c 22.18197,-6.16638 40.6455,-11.72179 41.03069,-12.34409 0.38439,-0.62312 3.03464,-27.74061 5.88882,-60.26301 2.85336,-32.52158 5.42269,-59.97977 5.70835,-61.01883 0.4904,-1.78355 -3.28388,-1.88794 -68.39178,-1.88794 H 153.05 l 2.93429,-31.02045 c 1.61362,-17.06193 2.97314,-31.06496 3.02007,-31.11918 0.0478,-0.0542 10.16158,-0.37629 22.47573,-0.71698 20.19124,-0.55756 61.82968,1.05282 63.22237,2.44632 0.52034,0.52034 3.94422,34.10931 3.94422,38.69444 0,2.261 0.30508,2.29418 20.90742,2.29418 h 20.90742 l -0.49282,-4.58594 c -0.27028,-2.52159 -2.0417,-22.06463 -3.93531,-43.42847 l -3.4433,-38.84333 -80.63147,-0.27676 c -64.14735,-0.22011 -80.63391,8.1e-4 -80.64038,1.07871 -0.005,0.74612 -0.47503,5.48258 -1.04554,10.52736 -1.37812,12.2057 -11.89415,130.14296 -11.89415,133.40014 v 2.55152 h 68.61028 68.61026 l -0.61178,4.04618 c -0.33583,2.2254 -1.4024,13.51424 -2.36944,25.08632 -0.96703,11.57208 -2.07003,21.33875 -2.45036,21.70452 -1.00589,0.96461 -41.36816,11.74768 -43.88487,11.72341 -1.16854,-0.0113 -11.59312,-2.61222 -23.1652,-5.77957 l -21.04014,-5.75933 -0.7712,-9.05617 c -0.42404,-4.98085 -1.06981,-12.0916 -1.43478,-15.80033 l -0.66276,-6.74337 h -20.4146 -20.41541 l 0.0453,4.04619 c 0.085,7.56636 4.99137,58.53609 5.7043,59.24822 0.8238,0.8238 79.23393,22.86496 81.64868,22.95156 0.89017,0.0316 19.76722,-4.98814 41.94838,-11.15532 z"
     style="fill:#f0be25;stroke-width:1.07898" />
  <path
     id="path78"
     d="M 130.05475,442.15707 65.886372,424.19121 51.609829,264.50222 C 43.757002,176.6734 37.309819,102.99248 37.282304,100.76708 L 37.23132,96.720902 H 196.92031 356.6101 l 0.0203,2.427707 c 0.0292,3.389081 -28.05622,320.217131 -28.62835,322.956391 -0.41109,1.96563 -8.15305,4.35692 -65.50362,20.23737 -35.77146,9.90424 -65.76661,17.95695 -66.65677,17.89464 -0.89016,-0.0623 -30.49445,-8.19836 -65.78685,-18.07994 z m 119.66578,-24.03432 c 28.22697,-7.78889 51.85181,-14.70786 52.5,-15.37549 1.00831,-1.03987 25.38736,-268.22534 25.28945,-277.16417 l -0.0323,-2.96665 h -65.27865 -65.27865 v 7.5526 7.55259 h -37.76381 c -29.48775,0 -37.76624,0.29618 -37.77352,1.349 -0.005,0.74207 -0.47502,5.4761 -1.04473,10.52007 -1.37894,12.20651 -11.89415,130.14297 -11.89415,133.40095 v 2.55071 h 44.23851 44.2377 v 31.29074 c 0,24.32321 -0.30023,31.28587 -1.34819,31.26968 -0.74206,-0.0113 -10.81706,-2.61221 -22.38913,-5.77955 l -21.04013,-5.75935 -0.77121,-9.05615 c -0.42485,-4.98085 -1.07062,-12.0908 -1.43478,-15.80034 l -0.66357,-6.74336 h -20.4146 -20.4146 l 0.0453,4.04618 c 0.12947,11.57288 5.13541,58.81447 6.30961,59.54035 0.71375,0.44104 19.48317,5.83379 41.70965,11.98479 l 40.41163,11.18284 v 20.28269 c 0,11.15532 0.3326,20.28269 0.73883,20.28269 0.40624,0 23.83362,-6.37274 52.0614,-14.16082 z M 155.93574,213.81006 c 1.55131,-16.90171 3.0314,-30.92173 3.29035,-31.1556 0.25815,-0.23387 8.84495,-0.6571 19.08179,-0.94032 l 18.61243,-0.51468 v 31.67107 31.67027 h -21.90198 -21.90278 z"
     style="fill:#e4a126;stroke-width:1.07898" />
  <path
     id="path76"
     d="M 140.09063,61.765137 V 51.514811 h 14.56625 14.56625 V 31.553655 11.592499 h 10.25033 10.25031 V 41.80398 72.015455 H 164.9072 140.09063 Z m 59.34398,2.157966 v -8.092361 h 13.48727 c 7.41799,0 13.48727,-0.274218 13.48727,-0.609371 0,-0.335153 -6.06928,-7.187195 -13.48727,-15.226763 L 199.43461,25.377213 v -6.892358 -6.892356 h 28.05351 28.05353 v 8.059151 8.059151 l -13.16992,0.302956 -13.1699,0.302955 13.7094,14.763928 13.70939,14.763926 v 7.085445 7.085444 h -28.593 -28.59301 z"
     style="fill:#0e0e0f;stroke-width:1.07898" />
</svg>
