<?xml version="1.0" encoding="UTF-8" standalone="no"?>
<svg
   version="1.1"
   id="svg64"
   width="397.31802"
   height="467.50037"
   viewBox="-62.83 -4.325 520.371 478.64472"
   sodipodi:docname="Javascript-logo.svg"
   inkscape:version="1.1.1 (3bf5ae0d25, 2021-09-20)"
   xmlns:inkscape="http://www.inkscape.org/namespaces/inkscape"
   xmlns:sodipodi="http://sodipodi.sourceforge.net/DTD/sodipodi-0.dtd"
   xmlns="http://www.w3.org/2000/svg"
   xmlns:svg="http://www.w3.org/2000/svg">
  <defs
     id="defs29" />
  <sodipodi:namedview
     id="namedview27"
     pagecolor="#ffffff"
     bordercolor="#666666"
     borderopacity="1.0"
     inkscape:pageshadow="2"
     inkscape:pageopacity="0"
     inkscape:pagecheckerboard="true"
     showgrid="false"
     height="467.50037px"
     inkscape:zoom="4.0897158"
     inkscape:cx="155.14525"
     inkscape:cy="19.683519"
     inkscape:window-width="1920"
     inkscape:window-height="1017"
     inkscape:window-x="-8"
     inkscape:window-y="-8"
     inkscape:window-maximized="1"
     inkscape:current-layer="svg64" />
  <path
     id="path-1"
     d="M 100.58118,9.6456598 V -27.852391 h 22.23421 16.11588 V -38.22691 -79.67768 h 26.98308 24.25666 V 26.90964 h -53.86219 -35.72764 z m 87.845,3.4206262 0.17098,-28.351534 h 21.51986 c 9.76477,0 0.0899,2.994308 0.0899,2.464319 -7.1161,-2.638882 -10.49436,14.1061809 -21.60968,1.59401 l -0.17098,-47.708898 V -79.67768 h 40.69492 62.41034 c -0.41885,38.206615 -0.18109,72.4938841 -0.18109,105.94683 l -61.51919,0.640489 h -41.40497 z"
     style="fill:#ffffff;stroke-width:1.4821"
     sodipodi:nodetypes="ccccccccccccccscccccccccc" />
  <path
     style="fill:#ffffff;stroke-width:1.33333"
     d="m 1.33372,56.943664 0.0625,4.999996 c 0.03444,2.749998 8.00162,93.80063 17.70507,202.33396 l 17.64258,197.33398 79.29492,22.20117 c 43.61211,12.21062 80.19493,22.26265 81.29493,22.33985 1.1,0.0771 38.16591,-9.87392 82.36914,-22.11329 70.87044,-19.6232 80.43786,-22.57875 80.94531,-25.00781 0.707,-3.38418 35.41255,-394.899022 35.37695,-399.087858 l -0.0254,-2.999998 H 198.66575 Z"
     id="path118" />
  <path
     id="path88"
     d="M 100.05947,510.77937 5.4387419,485.27607 4.2023523,478.527 C 3.1034631,472.52819 -37.928809,30.614807 -37.928809,24.775534 c 0,-2.112789 23.95757,-2.353172 234.974459,-2.353172 222.74022,0 234.97222,0.139055 234.95545,2.661466 -0.0748,10.895951 -42.5459,458.660472 -43.59001,459.551942 -1.31799,1.12646 -184.45797,50.32532 -190.57732,51.19739 -1.73497,0.24685 -45.73301,-11.02746 -97.7743,-25.05379 z m 156.64927,-90.11475 c 31.80294,-8.45762 58.28249,-15.81357 58.84366,-16.34716 0.56006,-0.53251 4.28153,-36.89403 8.26906,-80.80337 3.98753,-43.90937 7.65309,-82.7437 8.14496,-86.29772 l 0.89432,-6.46233 H 264.16397 195.4683 v 28.13134 28.13243 h 37.08948 37.08945 l -0.7378,3.42143 c -0.4058,1.88211 -1.98316,18.05356 -3.5046,35.93681 -1.61313,18.94934 -3.52583,33.24623 -4.58336,34.26597 -0.99829,0.96261 -16.11108,5.42535 -33.58486,9.9161 l -31.76831,8.16549 v 28.65955 c 0,19.56163 0.54218,28.65954 1.70815,28.65954 0.93902,0 27.72934,-6.91937 59.53229,-15.37808 z m 75.24762,-225.26637 c -1.04187,-7.4519 -10.3282,-107.392173 -10.3282,-111.160693 0,-2.289573 -5.45868,-2.509475 -62.29126,-2.509475 h -62.29125 v 29.418408 29.41735 l 27.99093,1.04023 c 15.39563,0.57239 31.59838,1.44337 36.00511,1.93492 l 8.01418,0.8947 1.94513,23.01108 c 1.06982,12.65624 2.34422,25.57767 2.83274,28.71344 l 0.88761,5.70237 h 29.06969 29.0697 z"
     style="fill:#ffffff;stroke-width:1.46366" />
  <path
     id="path80"
     d="M 114.185,479.9376 34.89,457.7366 17.247,260.4036 C 7.544,151.8696 -0.423,60.81963 -0.458,58.069634 l -0.063,-4.999998 h 197.334 197.333 l 0.026,2.999998 c 0.035,4.188998 -34.671,395.703966 -35.378,399.087966 -0.507,2.43 -10.075,5.385 -80.945,25.008 -44.203,12.24 -81.269,22.191 -82.369,22.114 -1.1,-0.078 -37.683,-10.131 -81.295,-22.342 z m 133.132,-76.742 c 27.411,-7.62 50.227,-14.485 50.703,-15.254 0.475,-0.77 3.75,-34.28 7.277,-74.469 3.526,-40.188 6.701,-74.119 7.054,-75.403 0.606,-2.204 -4.058,-2.333 -84.514,-2.333 h -85.156 l 3.626,-38.333 c 1.994,-21.084 3.674,-38.388 3.732,-38.455 0.059,-0.067 12.557,-0.465 27.774,-0.886 24.951,-0.689 76.405,1.301 78.126,3.023 0.643,0.643 4.874,42.15 4.874,47.816 0,2.794 0.377,2.835 25.836,2.835 h 25.836 l -0.609,-5.667 c -0.334,-3.116 -2.523,-27.266 -4.863,-53.666 l -4.255,-48 -99.639,-0.342 c -79.269,-0.272 -99.642,0.001 -99.65,1.333 -0.007,0.922 -0.587,6.775 -1.292,13.009 -1.703,15.083 -14.698,160.822 -14.698,164.847 v 3.153 h 84.784 84.784 l -0.756,5 c -0.415,2.75 -1.733,16.7 -2.928,31 -1.195,14.3 -2.558,26.369 -3.028,26.821 -1.243,1.192 -51.12,14.517 -54.23,14.487 -1.444,-0.014 -14.326,-3.228 -28.626,-7.142 l -26,-7.117 -0.953,-11.191 c -0.524,-6.155 -1.322,-14.942 -1.773,-19.525 l -0.819,-8.333 H 112.707 87.479 l 0.056,5 c 0.105,9.35 6.168,72.335 7.049,73.215 1.018,1.018 97.912,28.255 100.896,28.362 1.1,0.039 24.427,-6.164 51.837,-13.785 z"
     style="fill:#f0be25;stroke-width:1.33333" />
  <path
     id="path78"
     d="M 114.265,479.6746 34.97,457.4736 17.328,260.1406 C 7.624,151.6076 -0.343,60.557632 -0.377,57.807634 L -0.44,52.807638 h 197.333 197.334 l 0.025,2.999996 c 0.036,4.187998 -34.67,395.702966 -35.377,399.087966 -0.508,2.429 -10.075,5.384 -80.945,25.008 -44.204,12.239 -81.27,22.19 -82.37,22.113 -1.1,-0.077 -37.683,-10.131 -81.295,-22.342 z m 147.875,-29.7 c 34.881,-9.625 64.075,-18.175 64.876,-19 1.246,-1.285 31.372,-331.454998 31.251,-342.50099 l -0.04,-3.665998 H 277.56 196.893 v 9.332994 9.332994 h -46.666 c -36.439,0 -46.669,0.366 -46.678,1.667 -0.007,0.917 -0.587,6.767 -1.291,13 -1.704,15.084 -14.698,160.822 -14.698,164.848 v 3.152 h 54.667 54.666 v 38.667 c 0,30.057 -0.371,38.661 -1.666,38.641 -0.917,-0.014 -13.367,-3.228 -27.667,-7.142 l -26,-7.117 -0.953,-11.191 c -0.525,-6.155 -1.323,-14.941 -1.773,-19.525 l -0.82,-8.333 H 112.787 87.56 l 0.056,5 c 0.16,14.301 6.346,72.679 7.797,73.576 0.882,0.545 24.076,7.209 51.542,14.81 l 49.938,13.819 v 25.064 c 0,13.785 0.411,25.064 0.913,25.064 0.502,0 29.452,-7.875 64.334,-17.499 z M 146.247,197.4986 c 1.917,-20.886 3.746,-38.211 4.066,-38.5 0.319,-0.289 10.93,-0.812 23.58,-1.162 l 23,-0.636 v 39.137 39.136 h -27.065 -27.066 z"
     style="fill:#e4a126;stroke-width:1.33333" />
  <path
     id="path76"
     d="M 126.66667,9.61164 V -3.05503 h 18 18 V -27.721694 -52.38836 H 175.33334 188 V -15.055027 22.2783 H 157.33334 126.66667 Z M 200,12.27831 v -10 h 16.66667 c 9.16667,0 16.66667,-0.3388599 16.66667,-0.75302 0,-0.41416 -7.5,-8.881457 -16.66667,-18.816218 L 200,-35.354131 v -8.517115 -8.517114 h 34.66667 34.66667 v 9.958961 9.958961 l -16.2745,0.374372 -16.27449,0.374372 16.94116,18.244279 16.94116,18.244275 v 8.75572 8.75572 H 235.33334 200 Z"
     style="fill:#0e0e0f;stroke-width:1.33333" />
</svg>
