<?xml version="1.0" encoding="UTF-8" standalone="no"?>
<svg
   version="1.1"
   id="svg64"
   width="397.31802"
   height="467.50037"
   viewBox="-62.83 -4.325 520.371 478.64472"
   sodipodi:docname="Javascript-shield.svg"
   inkscape:version="1.1.1 (3bf5ae0d25, 2021-09-20)"
   xmlns:inkscape="http://www.inkscape.org/namespaces/inkscape"
   xmlns:sodipodi="http://sodipodi.sourceforge.net/DTD/sodipodi-0.dtd"
   xmlns="http://www.w3.org/2000/svg"
   xmlns:svg="http://www.w3.org/2000/svg">
  <defs
     id="defs29" />
  <sodipodi:namedview
     id="namedview27"
     pagecolor="#ffffff"
     bordercolor="#666666"
     borderopacity="1.0"
     inkscape:pageshadow="2"
     inkscape:pageopacity="0"
     inkscape:pagecheckerboard="true"
     showgrid="false"
     height="467.50037px"
     inkscape:zoom="1.4459329"
     inkscape:cx="187.07645"
     inkscape:cy="212.66547"
     inkscape:window-width="1920"
     inkscape:window-height="1017"
     inkscape:window-x="-8"
     inkscape:window-y="-8"
     inkscape:window-maximized="1"
     inkscape:current-layer="svg64" />
  <path
     style="fill:#ffffff;stroke-width:1.33333"
     d="m 1.33372,56.943664 0.0625,4.999996 c 0.03444,2.749998 8.00162,93.80063 17.70507,202.33396 l 17.64258,197.33398 79.29492,22.20117 c 43.61211,12.21062 80.19493,22.26265 81.29493,22.33985 1.1,0.0771 38.16591,-9.87392 82.36914,-22.11329 70.87044,-19.6232 80.43786,-22.57875 80.94531,-25.00781 0.707,-3.38418 35.41255,-394.899022 35.37695,-399.087858 l -0.0254,-2.999998 H 198.66575 Z"
     id="path118" />
  <path
     id="path88"
     d="M 100.05947,510.77937 5.4387419,485.27607 4.2023523,478.527 C 3.1034631,472.52819 -37.928809,30.614807 -37.928809,24.775534 c 0,-2.112789 23.95757,-2.353172 234.974459,-2.353172 222.74022,0 234.97222,0.139055 234.95545,2.661466 -0.0748,10.895951 -42.5459,458.660472 -43.59001,459.551942 -1.31799,1.12646 -184.45797,50.32532 -190.57732,51.19739 -1.73497,0.24685 -45.73301,-11.02746 -97.7743,-25.05379 z m 156.64927,-90.11475 c 31.80294,-8.45762 58.28249,-15.81357 58.84366,-16.34716 0.56006,-0.53251 4.28153,-36.89403 8.26906,-80.80337 3.98753,-43.90937 7.65309,-82.7437 8.14496,-86.29772 l 0.89432,-6.46233 H 264.16397 195.4683 v 28.13134 28.13243 h 37.08948 37.08945 l -0.7378,3.42143 c -0.4058,1.88211 -1.98316,18.05356 -3.5046,35.93681 -1.61313,18.94934 -3.52583,33.24623 -4.58336,34.26597 -0.99829,0.96261 -16.11108,5.42535 -33.58486,9.9161 l -31.76831,8.16549 v 28.65955 c 0,19.56163 0.54218,28.65954 1.70815,28.65954 0.93902,0 27.72934,-6.91937 59.53229,-15.37808 z m 75.24762,-225.26637 c -1.04187,-7.4519 -10.3282,-107.392173 -10.3282,-111.160693 0,-2.289573 -5.45868,-2.509475 -62.29126,-2.509475 h -62.29125 v 29.418408 29.41735 l 27.99093,1.04023 c 15.39563,0.57239 31.59838,1.44337 36.00511,1.93492 l 8.01418,0.8947 1.94513,23.01108 c 1.06982,12.65624 2.34422,25.57767 2.83274,28.71344 l 0.88761,5.70237 h 29.06969 29.0697 z"
     style="fill:#ffffff;stroke-width:1.46366" />
  <rect
     style="fill:#ffffff;fill-rule:evenodd;stroke-width:1.4514"
     id="rect1921"
     width="251.80913"
     height="112.10536"
     x="68.76516"
     y="-79.137741" />
  <g
     inkscape:groupmode="layer"
     id="layer3"
     inkscape:label="Layer 1">
    <g
       id="g3013"
       transform="matrix(1.0966855,0,0,1.0966855,-83.705838,-55.406715)">
      <polygon
         id="polygon2989"
         points="404.321,470.819 255.778,512 107.644,470.877 74.633,100.62 437.367,100.62 "
         style="fill:#264de4" />
      <polygon
         id="polygon2991"
         points="376.03,447.246 404.27,130.894 256,130.894 256,480.523 "
         style="fill:#2965f1" />
      <polygon
         id="polygon2993"
         points="150.31,268.217 154.38,313.627 256,313.627 256,268.217 "
         style="fill:#ebebeb" />
      <polygon
         id="polygon2995"
         points="255.843,176.305 142.132,176.305 146.26,221.716 256,221.716 256,176.305 "
         style="fill:#ebebeb" />
      <polygon
         id="polygon2997"
         points="162.771,407.634 255.791,433.457 256,433.399 256,386.153 255.801,386.206 205.227,372.55 201.994,336.333 177.419,336.333 156.409,336.333 "
         style="fill:#ebebeb" />
      <path
         id="path2999"
         d="m 160,0 h 55 v 23 h -32 v 23 h 32 v 23 h -55 z"
         inkscape:connector-curvature="0" />
      <path
         id="path3001"
         d="m 226,0 h 55 v 20 h -32 v 4 h 32 V 70 H 226 V 49 h 32 v -4 h -32 z"
         inkscape:connector-curvature="0" />
      <path
         id="path3003"
         d="m 292,0 h 55 v 20 h -32 v 4 h 32 V 70 H 292 V 49 h 32 v -4 h -32 z"
         inkscape:connector-curvature="0" />
      <polygon
         id="polygon3005"
         points="306.49,372.521 255.843,386.191 255.843,433.435 348.937,407.634 349.62,399.962 360.291,280.411 361.399,268.217 369.597,176.305 255.843,176.305 255.843,221.716 319.831,221.716 315.699,268.217 255.843,268.217 255.843,313.627 311.761,313.627 "
         style="fill:#ffffff" />
    </g>
  </g>
  <g
     inkscape:groupmode="layer"
     id="layer4"
     inkscape:label="Layer 2" />
</svg>
