<?xml version="1.0" encoding="UTF-8" standalone="no"?>
<svg
   version="1.1"
   id="svg64"
   width="397.31802"
   height="467.50037"
   viewBox="-62.83 -4.325 520.371 478.64472"
   sodipodi:docname="HTML5_logo.svg"
   inkscape:version="1.1.1 (3bf5ae0d25, 2021-09-20)"
   xmlns:inkscape="http://www.inkscape.org/namespaces/inkscape"
   xmlns:sodipodi="http://sodipodi.sourceforge.net/DTD/sodipodi-0.dtd"
   xmlns="http://www.w3.org/2000/svg"
   xmlns:svg="http://www.w3.org/2000/svg">
  <defs
     id="defs29" />
  <sodipodi:namedview
     id="namedview27"
     pagecolor="#ffffff"
     bordercolor="#666666"
     borderopacity="1.0"
     inkscape:pageshadow="2"
     inkscape:pageopacity="0"
     inkscape:pagecheckerboard="true"
     showgrid="false"
     height="467.50037px"
     inkscape:zoom="1.022429"
     inkscape:cx="160.89137"
     inkscape:cy="193.16745"
     inkscape:window-width="1920"
     inkscape:window-height="1017"
     inkscape:window-x="-8"
     inkscape:window-y="-8"
     inkscape:window-maximized="1"
     inkscape:current-layer="svg64" />
  <rect
     style="fill:#ffffff;stroke-width:1.56565"
     id="rect5479"
     width="305.93265"
     height="102.90671"
     x="48.774048"
     y="-64.558151" />
  <g
     inkscape:groupmode="layer"
     id="layer5"
     inkscape:label="Layer 1">
    <path
       style="fill:#ffffff;stroke-width:1.33333"
       d="m 1.33372,56.943664 0.0625,4.999996 c 0.03444,2.749998 8.00162,93.80063 17.70507,202.33396 l 17.64258,197.33398 79.29492,22.20117 c 43.61211,12.21062 80.19493,22.26265 81.29493,22.33985 1.1,0.0771 38.16591,-9.87392 82.36914,-22.11329 70.87044,-19.6232 80.43786,-22.57875 80.94531,-25.00781 0.707,-3.38418 35.41255,-394.899022 35.37695,-399.087858 l -0.0254,-2.999998 H 198.66575 Z"
       id="path118" />
    <path
       id="path88"
       d="M 100.05947,510.77937 5.4387419,485.27607 4.2023523,478.527 C 3.1034631,472.52819 -37.928809,30.614807 -37.928809,24.775534 c 0,-2.112789 23.95757,-2.353172 234.974459,-2.353172 222.74022,0 234.97222,0.139055 234.95545,2.661466 -0.0748,10.895951 -42.5459,458.660472 -43.59001,459.551942 -1.31799,1.12646 -184.45797,50.32532 -190.57732,51.19739 -1.73497,0.24685 -45.73301,-11.02746 -97.7743,-25.05379 z m 156.64927,-90.11475 c 31.80294,-8.45762 58.28249,-15.81357 58.84366,-16.34716 0.56006,-0.53251 4.28153,-36.89403 8.26906,-80.80337 3.98753,-43.90937 7.65309,-82.7437 8.14496,-86.29772 l 0.89432,-6.46233 H 264.16397 195.4683 v 28.13134 28.13243 h 37.08948 37.08945 l -0.7378,3.42143 c -0.4058,1.88211 -1.98316,18.05356 -3.5046,35.93681 -1.61313,18.94934 -3.52583,33.24623 -4.58336,34.26597 -0.99829,0.96261 -16.11108,5.42535 -33.58486,9.9161 l -31.76831,8.16549 v 28.65955 c 0,19.56163 0.54218,28.65954 1.70815,28.65954 0.93902,0 27.72934,-6.91937 59.53229,-15.37808 z m 75.24762,-225.26637 c -1.04187,-7.4519 -10.3282,-107.392173 -10.3282,-111.160693 0,-2.289573 -5.45868,-2.509475 -62.29126,-2.509475 h -62.29125 v 29.418408 29.41735 l 27.99093,1.04023 c 15.39563,0.57239 31.59838,1.44337 36.00511,1.93492 l 8.01418,0.8947 1.94513,23.01108 c 1.06982,12.65624 2.34422,25.57767 2.83274,28.71344 l 0.88761,5.70237 h 29.06969 29.0697 z"
       style="fill:#ffffff;stroke-width:1.46366" />
    <path
       fill="#e44d26"
       d="M 36.644699,453.28263 1.33372,56.943664 H 389.54048 L 354.2295,453.06863 195.11609,497.15385"
       id="path6"
       style="stroke-width:1.07003" />
    <path
       fill="#f16529"
       d="M 195.4371,463.44792 V 89.472564 H 354.1225 L 323.84065,427.60193"
       id="path8"
       style="stroke-width:1.07003" />
    <path
       fill="#ebebeb"
       d="M 73.453719,137.9449 H 195.4371 v 48.57935 h -68.6959 l 4.49412,49.75638 h 64.20178 v 48.47233 H 86.722089 m 2.14006,24.39668 H 137.6555 l 3.4241,38.84208 54.3575,14.5524 v 50.7194 L 95.710339,385.44275"
       id="path10"
       style="stroke-width:1.07003" />
    <path
       fill="#ffffff"
       d="M 316.99247,137.9449 H 195.22309 v 48.57935 h 117.27525 m -4.38712,49.75638 H 195.22309 v 48.57933 h 59.92167 l -5.67116,63.13176 -54.25051,14.5524 v 50.5054 l 99.51276,-27.60677"
       id="path12"
       style="stroke-width:1.07003" />
    <path
       d="m 67.670738,-40.233562 h 20.75931 v 20.578796 h 19.134672 v -20.578796 h 20.75931 V 22.044373 H 107.56472 V 1.2850612 H 88.610568 V 22.044373 H 67.670738 M 155.76243,-19.47425 h -18.32235 v -20.759312 h 57.49427 v 20.759312 h -18.41261 v 41.518623 h -20.75931 m 48.28797,-62.277935 h 21.75214 l 13.35817,21.932664 13.35816,-21.932664 h 21.75215 V 22.044373 H 253.51171 V -8.8238208 L 238.9802,13.560132 224.44867,-8.8238208 V 22.044373 H 204.0504 m 80.51002,-62.277935 h 20.75931 V 1.4655772 H 334.7438 V 22.044373 h -50.18338"
       id="path4"
       style="stroke-width:0.902579" />
  </g>
</svg>
