<?xml version="1.0" encoding="utf-8"?>
<svg width="2500" height="2246" viewBox="0 0 256 230" preserveAspectRatio="xMinYMin meet" xmlns="http://www.w3.org/2000/svg">
  <path d="M 7.908 114.771 C 7.908 132.967 25.675 149.953 53.686 159.527 C 48.093 187.687 52.684 210.384 68.019 219.228 C 83.781 228.318 107.264 222.026 129.552 202.542 C 151.278 221.239 173.235 228.597 188.556 219.728 C 204.304 210.611 209.093 186.375 203.345 157.336 C 232.521 147.69 248.84 133.207 248.84 114.771 C 248.84 96.998 231.04 81.623 203.407 72.11 C 209.595 41.871 204.352 19.724 188.381 10.515 C 172.985 1.637 150.772 9.375 128.727 28.56 C 105.792 8.197 83.799 1.98 67.846 11.215 C 52.464 20.119 48.075 43.229 53.686 71.91 C 26.62 81.346 7.908 97.07 7.908 114.771 Z" fill="#FFF" style=""/>
  <path d="M 197.554 81.556 C 195.277 80.775 192.98 80.051 190.666 79.386 C 191.05 77.827 191.405 76.26 191.731 74.688 C 196.945 49.378 193.536 28.988 181.894 22.276 C 170.732 15.839 152.477 22.551 134.04 38.595 C 132.223 40.18 130.446 41.81 128.712 43.484 C 127.551 42.371 126.369 41.279 125.167 40.21 C 105.844 23.053 86.476 15.824 74.847 22.556 C 63.695 29.011 60.392 48.18 65.086 72.166 C 65.554 74.542 66.081 76.905 66.668 79.253 C 63.927 80.032 61.281 80.861 58.749 81.744 C 36.096 89.641 21.628 102.02 21.628 114.859 C 21.628 128.12 37.158 141.421 60.754 149.485 C 62.667 150.136 64.597 150.739 66.54 151.293 C 65.909 153.824 65.348 156.371 64.859 158.933 C 60.384 182.502 63.879 201.217 75.001 207.632 C 86.489 214.256 105.768 207.448 124.543 191.037 C 126.027 189.74 127.516 188.364 129.008 186.922 C 130.886 188.734 132.815 190.494 134.791 192.199 C 152.977 207.847 170.937 214.166 182.049 207.734 C 193.526 201.09 197.255 180.985 192.412 156.524 C 192.043 154.656 191.612 152.748 191.129 150.805 C 192.483 150.405 193.812 149.992 195.108 149.562 C 219.638 141.436 235.597 128.297 235.597 114.859 C 235.597 101.973 220.664 89.512 197.554 81.556 Z" fill="#53C1DE" style=""/>
  <path d="M 192.233 140.886 C 191.064 141.274 189.863 141.648 188.64 142.011 C 185.932 133.438 182.276 124.321 177.805 114.904 C 182.073 105.709 185.586 96.71 188.218 88.193 C 190.407 88.827 192.532 89.495 194.579 90.2 C 214.38 97.015 226.457 107.094 226.457 114.859 C 226.457 123.13 213.413 133.869 192.234 140.886 Z M 183.446 158.3 C 185.587 169.116 185.893 178.895 184.474 186.54 C 183.2 193.409 180.637 197.989 177.469 199.823 C 170.725 203.726 156.304 198.652 140.753 185.27 C 138.97 183.736 137.174 182.098 135.373 180.365 C 141.402 173.77 147.428 166.104 153.308 157.591 C 163.653 156.673 173.425 155.172 182.288 153.124 C 182.723 154.885 183.112 156.612 183.446 158.3 Z M 94.575 199.149 C 87.987 201.475 82.74 201.541 79.568 199.713 C 72.818 195.821 70.013 180.793 73.84 160.637 C 74.295 158.255 74.816 155.886 75.403 153.533 C 84.167 155.471 93.868 156.866 104.237 157.707 C 110.157 166.037 116.356 173.695 122.604 180.4 C 121.276 181.684 119.917 182.936 118.528 184.154 C 110.226 191.411 101.907 196.559 94.575 199.149 Z M 63.711 140.835 C 53.277 137.269 44.661 132.635 38.755 127.578 C 33.448 123.033 30.768 118.52 30.768 114.859 C 30.768 107.068 42.384 97.13 61.758 90.375 C 64.19 89.531 66.645 88.758 69.122 88.058 C 71.8 96.767 75.313 105.873 79.551 115.081 C 75.258 124.427 71.695 133.677 68.993 142.489 C 67.219 141.981 65.457 141.43 63.711 140.835 Z M 74.057 70.411 C 70.035 49.859 72.706 34.356 79.426 30.466 C 86.585 26.323 102.413 32.232 119.097 47.045 C 120.163 47.992 121.234 48.983 122.307 50.009 C 116.091 56.684 109.948 64.283 104.08 72.565 C 94.017 73.498 84.383 74.996 75.528 77.002 C 74.982 74.818 74.492 72.619 74.057 70.41 Z M 166.353 93.201 C 164.262 89.588 162.092 86.02 159.847 82.5 C 166.674 83.362 173.215 84.508 179.357 85.91 C 177.513 91.82 175.215 98 172.509 104.335 C 170.531 100.583 168.479 96.871 166.353 93.201 Z M 128.715 56.541 C 132.931 61.108 137.153 66.208 141.306 71.741 C 132.881 71.343 124.442 71.341 116.017 71.735 C 120.174 66.254 124.433 61.161 128.715 56.541 Z M 90.835 93.263 C 88.736 96.904 86.722 100.594 84.795 104.329 C 82.133 98.015 79.856 91.808 77.996 85.814 C 84.101 84.447 90.612 83.331 97.395 82.483 C 95.124 86.025 92.937 89.619 90.835 93.263 Z M 97.59 147.886 C 90.582 147.104 83.973 146.045 77.87 144.716 C 79.759 138.616 82.087 132.275 84.806 125.826 C 86.741 129.564 88.763 133.255 90.872 136.898 C 93.024 140.614 95.263 144.277 97.59 147.886 Z M 128.968 173.822 C 124.635 169.147 120.315 163.977 116.094 158.415 C 120.19 158.576 124.367 158.658 128.613 158.658 C 132.974 158.658 137.286 158.56 141.529 158.371 C 137.362 164.034 133.155 169.212 128.968 173.822 Z M 172.596 125.498 C 175.455 132.016 177.866 138.323 179.781 144.32 C 173.577 145.736 166.879 146.876 159.821 147.723 C 162.083 144.137 164.273 140.507 166.39 136.834 C 168.543 133.102 170.612 129.322 172.596 125.498 Z M 158.472 132.268 C 155.231 137.899 151.807 143.422 148.207 148.83 C 141.859 149.284 135.298 149.518 128.613 149.518 C 121.955 149.518 115.477 149.311 109.24 148.906 C 105.546 143.511 102.058 137.978 98.783 132.318 C 95.523 126.689 92.478 120.939 89.654 115.078 C 92.471 109.216 95.506 103.462 98.755 97.829 L 98.755 97.831 C 102.003 92.196 105.464 86.686 109.13 81.314 C 115.494 80.833 122.018 80.581 128.614 80.581 C 135.238 80.581 141.771 80.835 148.133 81.32 C 151.762 86.684 155.201 92.174 158.443 97.78 C 161.703 103.402 164.779 109.127 167.667 114.949 C 164.809 120.829 161.742 126.606 158.473 132.268 Z M 177.328 30.195 C 184.493 34.327 187.28 50.991 182.778 72.843 C 182.483 74.267 182.162 75.685 181.816 77.097 C 172.939 75.049 163.299 73.524 153.207 72.577 C 147.327 64.205 141.235 56.593 135.12 50.004 C 136.723 48.459 138.363 46.954 140.04 45.491 C 155.837 31.743 170.601 26.315 177.328 30.195 Z" fill="#FFF" style=""/>
  <path d="M 128.613 95.752 C 139.165 95.752 147.719 104.307 147.719 114.859 C 147.719 125.411 139.165 133.966 128.613 133.966 C 118.061 133.966 109.506 125.411 109.506 114.859 C 109.506 104.307 118.061 95.752 128.613 95.752" fill="#53C1DE" style=""/>
</svg>