<?xml version="1.0" encoding="UTF-8" standalone="no"?>
<!-- Generator: Adobe Illustrator 17.1.0, SVG Export Plug-In . SVG Version: 6.00 Build 0)  -->

<svg
   version="1.1"
   id="Layer_1"
   x="0px"
   y="0px"
   viewBox="0 0 547.8 410.6"
   enable-background="new 0 0 547.8 410.6"
   xml:space="preserve"
   sodipodi:docname="sass-logo.svg"
   inkscape:version="1.1.1 (3bf5ae0d25, 2021-09-20)"
   xmlns:inkscape="http://www.inkscape.org/namespaces/inkscape"
   xmlns:sodipodi="http://sodipodi.sourceforge.net/DTD/sodipodi-0.dtd"
   xmlns="http://www.w3.org/2000/svg"
   xmlns:svg="http://www.w3.org/2000/svg"><defs
   id="defs19"><linearGradient
     id="linearGradient1226"
     inkscape:swatch="solid"><stop
       style="stop-color:#ffffff;stop-opacity:1;"
       offset="0"
       id="stop1224" /></linearGradient></defs><sodipodi:namedview
   id="namedview17"
   pagecolor="#ffffff"
   bordercolor="#666666"
   borderopacity="1.0"
   inkscape:pageshadow="2"
   inkscape:pageopacity="0.0"
   inkscape:pagecheckerboard="true"
   showgrid="false"
   inkscape:zoom="1.9313619"
   inkscape:cx="273.64111"
   inkscape:cy="205.29555"
   inkscape:window-width="1920"
   inkscape:window-height="1017"
   inkscape:window-x="-8"
   inkscape:window-y="-8"
   inkscape:window-maximized="1"
   inkscape:current-layer="layer2" />

<g
   inkscape:groupmode="layer"
   id="layer2"
   inkscape:label="Layer 2"
   style="display:inline"><path
     fill="#cd6799"
     d="m 430.99931,228.15467 c -15.37895,0.0805 -28.74494,3.78435 -39.93695,9.25957 -4.10642,-8.13232 -8.21284,-15.37894 -8.9375,-20.69313 -0.80519,-6.19989 -1.7714,-9.98424 -0.80519,-17.3919 0.96622,-7.40766 5.3142,-17.95553 5.23368,-18.76071 -0.0805,-0.80518 -0.96622,-4.58952 -9.8232,-4.67004 -8.85699,-0.0805 -16.5062,1.69088 -17.3919,4.0259 -0.8857,2.33502 -2.57658,7.64921 -3.70383,13.12444 -1.52984,8.05181 -17.71397,36.79675 -26.97355,51.85362 -2.97917,-5.87781 -5.55574,-11.03097 -6.11937,-15.13739 -0.80518,-6.19989 -1.7714,-9.98424 -0.80518,-17.3919 0.96622,-7.40766 5.31419,-17.95552 5.23367,-18.7607 -0.0805,-0.80518 -0.96621,-4.58953 -9.8232,-4.67005 -8.85698,-0.0805 -16.50619,1.69088 -17.3919,4.0259 -0.8857,2.33503 -1.85191,7.81025 -3.70383,13.12444 -1.8519,5.3142 -23.35023,53.30295 -28.98649,65.70273 -2.89864,6.36093 -5.3947,11.43356 -7.16611,14.89584 0,0 0,0 0,0 0,0 -0.0805,0.24155 -0.32207,0.64414 -1.52985,2.97917 -2.41554,4.58953 -2.41554,4.58953 0,0 0,0 0,0.0805 -1.20777,2.17399 -2.49606,4.18694 -3.14021,4.18694 -0.48311,0 -1.3688,-5.7973 0.16104,-13.68807 3.22072,-16.66723 10.86994,-42.59405 10.78942,-43.47974 0,-0.48311 1.44932,-4.99212 -4.99212,-7.32715 -6.28041,-2.33502 -8.53491,1.52985 -9.09854,1.52985 -0.56363,0 -0.96622,1.3688 -0.96622,1.3688 0,0 7.00507,-29.14753 -13.36599,-29.14753 -12.72185,0 -30.27479,13.92962 -38.97074,26.49044 -5.47523,2.97917 -17.15034,9.34009 -29.63064,16.18413 -4.75056,2.65709 -9.66217,5.31419 -14.25169,7.81025 -0.32208,-0.32208 -0.64415,-0.72467 -0.96622,-1.04674 -24.63852,-26.3294 -70.21174,-44.92907 -68.2793,-80.27649 0.72466,-12.88289 5.15315,-46.70047 87.52311,-87.76468 67.7962,-33.41498 121.74329,-24.15541 131.08338,-3.62331 13.366,29.30857 -28.90598,83.73877 -98.95668,91.62954 -26.73199,2.97917 -40.74213,-7.32714 -44.28492,-11.19201 -3.70383,-4.0259 -4.26746,-4.26745 -5.63627,-3.46227 -2.2545,1.20777 -0.80518,4.83108 0,6.92455 2.09347,5.47523 10.7089,15.13739 25.28267,19.88796 12.88289,4.18694 44.20441,6.52196 82.12841,-8.13233 C 304.02236,162.45194 337.19579,116.79821 327.4531,78.55214 317.71042,39.74244 253.29598,26.94007 192.34382,48.59942 156.11071,61.48231 116.81789,81.77286 88.55606,108.18278 54.98003,139.58482 49.66584,166.88044 51.83983,178.314 c 7.81025,40.58109 63.77029,66.99101 86.15432,86.5569 -1.12726,0.64414 -2.17399,1.20777 -3.05969,1.69088 -11.19202,5.55574 -53.86658,27.85924 -64.49496,51.45103 -12.07771,26.73199 1.93243,45.89529 11.19201,48.47186 28.74494,7.97129 58.29507,-6.36092 74.15713,-30.03323 15.86205,-23.6723 13.92961,-54.4302 6.60248,-68.52086 -0.0805,-0.16103 -0.16105,-0.32207 -0.32208,-0.4831 2.89865,-1.69088 5.87782,-3.46228 8.77646,-5.15316 5.71678,-3.38176 11.35304,-6.52196 16.18414,-9.09854 -2.73762,7.48818 -4.75058,16.42568 -5.71678,29.30857 -1.20778,15.13739 4.99212,34.7838 13.12444,42.51353 3.62331,3.38176 7.89077,3.46228 10.62837,3.46228 9.50113,0 13.76859,-7.89077 18.51915,-17.23087 5.7973,-11.43356 11.03097,-24.71904 11.03097,-24.71904 0,0 -6.52196,35.91105 11.19201,35.91105 6.44146,0 12.96341,-8.37387 15.86207,-12.64133 0,0.0805 0,0.0805 0,0.0805 0,0 0.16102,-0.24156 0.48311,-0.80518 0.64414,-1.04674 1.04673,-1.69088 1.04673,-1.69088 0,0 0,-0.0805 0,-0.16104 2.57658,-4.50901 8.37388,-14.7348 16.98931,-31.72411 11.11149,-21.90091 21.82039,-49.27704 21.82039,-49.27704 0,0 0.96622,6.68299 4.26745,17.79448 1.93243,6.52197 5.95833,13.68807 9.17906,20.61262 -2.57658,3.62332 -4.18694,5.63627 -4.18694,5.63627 0,0 0,0 0.0805,0.0805 -2.09347,2.73761 -4.34796,5.71678 -6.84402,8.61543 -8.77648,10.46734 -19.24382,22.46453 -20.69315,25.92681 -1.69088,4.10642 -1.28829,7.08559 1.93243,9.50113 2.33504,1.77139 6.52196,2.01295 10.78942,1.77139 7.89077,-0.56362 13.44653,-2.49605 16.18413,-3.70383 4.26747,-1.52984 9.25957,-3.86486 13.92962,-7.32714 8.61543,-6.36092 13.84911,-15.45946 13.366,-27.45665 -0.24156,-6.60248 -2.41554,-13.20496 -5.07264,-19.40485 0.80518,-1.12725 1.52984,-2.25451 2.33502,-3.38176 13.60755,-19.88796 24.15542,-41.70835 24.15542,-41.70835 0,0 0.96621,6.683 4.26745,17.79449 1.61036,5.63626 4.9116,11.75564 7.81025,17.71397 -12.80237,10.38683 -20.69313,22.46454 -23.51127,30.35531 -5.07263,14.65428 -1.12725,21.25676 6.36093,22.7866 3.38176,0.72466 8.21284,-0.8857 11.75564,-2.41554 4.50901,-1.44932 9.8232,-3.94538 14.89583,-7.64921 8.61543,-6.36093 16.90879,-15.21791 16.42569,-27.2151 -0.24156,-5.47523 -1.69088,-10.86994 -3.70383,-16.10361 10.86993,-4.50901 24.88007,-7.00507 42.75508,-4.9116 38.32659,4.50901 45.89528,28.42287 44.44596,38.48762 -1.44932,10.06476 -9.50113,15.53999 -12.15822,17.23086 -2.6571,1.69088 -3.5428,2.25451 -3.30124,3.46228 0.32207,1.7714 1.61036,1.69088 3.86486,1.36881 3.14021,-0.56363 20.12951,-8.13233 20.85418,-26.65148 1.20777,-23.6723 -21.33729,-49.51859 -61.19372,-49.27704 z m -295.66227,99.68134 c -12.72185,13.84911 -30.43582,19.08278 -38.08503,14.65429 -8.21284,-4.75057 -4.99212,-25.20215 10.62838,-39.85644 9.50113,-8.9375 21.73987,-17.23086 29.87219,-22.3035 1.85192,-1.12725 4.58953,-2.73761 7.89077,-4.75056 0.56363,-0.32207 0.88571,-0.48311 0.88571,-0.48311 v 0 c 0.64414,-0.40259 1.28828,-0.80518 1.93243,-1.20777 5.71678,20.93469 0.24156,39.37333 -13.12445,53.94709 z M 227.9328,264.8709 c -4.4285,10.78942 -13.68807,38.40711 -19.32434,36.87726 -4.83108,-1.28828 -7.81025,-22.22298 -0.96621,-42.91611 3.46227,-10.38683 10.78942,-22.78661 15.05687,-27.61769 6.92455,-7.72974 14.57377,-10.30631 16.42568,-7.16611 2.33503,4.10642 -8.45439,34.05913 -11.192,40.82265 z m 76.41162,36.55519 c -1.85191,0.96622 -3.62331,1.61036 -4.42849,1.12725 -0.56363,-0.32207 0.80518,-1.61036 0.80518,-1.61036 0,0 9.58165,-10.30631 13.366,-14.97635 2.17398,-2.73762 4.75056,-5.95834 7.48817,-9.58165 0,0.32207 0,0.72466 0,1.04673 0,12.31927 -11.91667,20.61262 -17.23086,23.99438 z m 58.93921,-13.44651 c -1.3688,-0.96622 -1.12725,-4.18694 3.46228,-14.2517 1.7714,-3.94538 5.95833,-10.54786 13.12444,-16.90879 0.80518,2.57658 1.36881,5.07264 1.28829,7.40766 -0.0805,15.53999 -11.19201,21.33729 -17.87501,23.75283 z"
     id="path2-0"
     style="stroke:#ffffff;stroke-width:44.105;stroke-miterlimit:4;stroke-dasharray:none;stroke-opacity:1" /></g><g
   id="g4"
   transform="matrix(0.80518047,0,0,0.80518047,53.325137,39.989359)">
</g>
<g
   id="g6"
   transform="matrix(0.80518047,0,0,0.80518047,53.325137,39.989359)">
</g>
<g
   id="g8"
   transform="matrix(0.80518047,0,0,0.80518047,53.325137,39.989359)">
</g>
<g
   id="g10"
   transform="matrix(0.80518047,0,0,0.80518047,53.325137,39.989359)">
</g>
<g
   id="g12"
   transform="matrix(0.80518047,0,0,0.80518047,53.325137,39.989359)">
</g>
<g
   id="g14"
   transform="matrix(0.80518047,0,0,0.80518047,53.325137,39.989359)">
</g>
<g
   inkscape:groupmode="layer"
   id="layer1"
   inkscape:label="Layer 1"><path
     fill="#cd6799"
     d="m 432.88721,230.01195 c -15.37895,0.0805 -28.74494,3.78435 -39.93695,9.25957 -4.10642,-8.13232 -8.21284,-15.37894 -8.9375,-20.69313 -0.80519,-6.19989 -1.7714,-9.98424 -0.80519,-17.3919 0.96622,-7.40766 5.3142,-17.95553 5.23368,-18.76071 -0.0805,-0.80518 -0.96622,-4.58952 -9.8232,-4.67004 -8.85699,-0.0805 -16.5062,1.69088 -17.3919,4.0259 -0.8857,2.33502 -2.57658,7.64921 -3.70383,13.12444 -1.52984,8.05181 -17.71397,36.79675 -26.97355,51.85362 -2.97917,-5.87781 -5.55574,-11.03097 -6.11937,-15.13739 -0.80518,-6.19989 -1.7714,-9.98424 -0.80518,-17.3919 0.96622,-7.40766 5.31419,-17.95552 5.23367,-18.7607 -0.0805,-0.80518 -0.96621,-4.58953 -9.8232,-4.67005 -8.85698,-0.0805 -16.5062,1.69088 -17.3919,4.0259 -0.8857,2.33503 -1.85191,7.81025 -3.70383,13.12444 -1.85191,5.3142 -23.35023,53.30295 -28.98649,65.70273 -2.89865,6.36093 -5.39471,11.43356 -7.16611,14.89584 0,0 0,0 0,0 0,0 -0.0805,0.24155 -0.32207,0.64414 -1.52985,2.97917 -2.41554,4.58953 -2.41554,4.58953 0,0 0,0 0,0.0805 -1.20777,2.17399 -2.49606,4.18694 -3.14021,4.18694 -0.48311,0 -1.3688,-5.7973 0.16104,-13.68807 3.22072,-16.66723 10.86994,-42.59405 10.78942,-43.47974 0,-0.48311 1.44932,-4.99212 -4.99212,-7.32715 -6.28041,-2.33502 -8.53491,1.52985 -9.09854,1.52985 -0.56363,0 -0.96622,1.3688 -0.96622,1.3688 0,0 7.00507,-29.14753 -13.36599,-29.14753 -12.72185,0 -30.27479,13.92962 -38.97074,26.49044 -5.47523,2.97917 -17.15034,9.34009 -29.63064,16.18413 -4.75056,2.65709 -9.66217,5.31419 -14.25169,7.81025 -0.32208,-0.32208 -0.64415,-0.72467 -0.96622,-1.04674 -24.63852,-26.3294 -70.211737,-44.92907 -68.279304,-80.27649 0.724662,-12.88289 5.153155,-46.70047 87.523114,-87.764673 67.7962,-33.414989 121.74329,-24.155414 131.08338,-3.623312 13.366,29.308565 -28.90598,83.738765 -98.95668,91.629535 -26.73199,2.97917 -40.74213,-7.32714 -44.28492,-11.19201 -3.70383,-4.0259 -4.26746,-4.26745 -5.63627,-3.46227 -2.2545,1.20777 -0.80518,4.83108 0,6.92455 2.09347,5.47523 10.7089,15.13739 25.28267,19.88796 12.88289,4.18694 44.20441,6.52196 82.12841,-8.13233 C 305.91025,164.30922 339.08369,118.65549 329.341,80.409418 319.59832,41.59972 255.18388,28.79735 194.23172,50.456705 157.9986,63.339592 118.70579,83.63014 90.443956,110.04006 56.867931,141.4421 51.553739,168.73772 53.727727,180.17128 c 7.81025,40.58109 63.770293,66.99101 86.154313,86.5569 -1.12726,0.64414 -2.17399,1.20777 -3.05969,1.69088 -11.19201,5.55574 -53.866572,27.85924 -64.494954,51.45103 -12.077707,26.73199 1.932433,45.89529 11.192008,48.47186 28.744946,7.97129 58.295066,-6.36092 74.157126,-30.03323 15.86205,-23.6723 13.92962,-54.4302 6.60248,-68.52086 -0.0805,-0.16103 -0.16104,-0.32207 -0.32208,-0.4831 2.89865,-1.69088 5.87782,-3.46228 8.77647,-5.15316 5.71678,-3.38176 11.35304,-6.52196 16.18413,-9.09854 -2.73762,7.48818 -4.75057,16.42568 -5.71678,29.30857 -1.20777,15.13739 4.99212,34.7838 13.12444,42.51353 3.62331,3.38176 7.89077,3.46228 10.62838,3.46228 9.50113,0 13.76859,-7.89077 18.51915,-17.23087 5.7973,-11.43356 11.03097,-24.71904 11.03097,-24.71904 0,0 -6.52196,35.91105 11.19201,35.91105 6.44145,0 12.96341,-8.37387 15.86206,-12.64133 0,0.0805 0,0.0805 0,0.0805 0,0 0.16103,-0.24156 0.48311,-0.80518 0.64414,-1.04674 1.04673,-1.69088 1.04673,-1.69088 0,0 0,-0.0805 0,-0.16104 2.57658,-4.50901 8.37388,-14.7348 16.98931,-31.72411 11.11149,-21.90091 21.82039,-49.27704 21.82039,-49.27704 0,0 0.96622,6.68299 4.26746,17.79448 1.93243,6.52197 5.95833,13.68807 9.17905,20.61262 -2.57658,3.62332 -4.18694,5.63627 -4.18694,5.63627 0,0 0,0 0.0805,0.0805 -2.09347,2.73761 -4.34797,5.71678 -6.84403,8.61543 -8.77647,10.46734 -19.24382,22.46453 -20.69314,25.92681 -1.69088,4.10642 -1.28829,7.08559 1.93243,9.50113 2.33503,1.77139 6.52196,2.01295 10.78942,1.77139 7.89077,-0.56362 13.44652,-2.49605 16.18413,-3.70383 4.26746,-1.52984 9.25957,-3.86486 13.92962,-7.32714 8.61543,-6.36092 13.84911,-15.45946 13.366,-27.45665 -0.24156,-6.60248 -2.41554,-13.20496 -5.07264,-19.40485 0.80518,-1.12725 1.52984,-2.25451 2.33502,-3.38176 13.60755,-19.88796 24.15542,-41.70835 24.15542,-41.70835 0,0 0.96621,6.683 4.26745,17.79449 1.61036,5.63626 4.9116,11.75564 7.81025,17.71397 -12.80237,10.38683 -20.69313,22.46454 -23.51127,30.35531 -5.07263,14.65428 -1.12725,21.25676 6.36093,22.7866 3.38176,0.72466 8.21284,-0.8857 11.75564,-2.41554 4.50901,-1.44932 9.8232,-3.94538 14.89583,-7.64921 8.61543,-6.36093 16.90879,-15.21791 16.42569,-27.2151 -0.24156,-5.47523 -1.69088,-10.86994 -3.70383,-16.10361 10.86993,-4.50901 24.88007,-7.00507 42.75508,-4.9116 38.32659,4.50901 45.89528,28.42287 44.44596,38.48762 -1.44932,10.06476 -9.50113,15.53999 -12.15822,17.23086 -2.6571,1.69088 -3.5428,2.25451 -3.30124,3.46228 0.32207,1.7714 1.61036,1.69088 3.86486,1.36881 3.14021,-0.56363 20.12951,-8.13233 20.85418,-26.65148 1.20777,-23.6723 -21.33729,-49.51859 -61.19372,-49.27704 z m -295.66227,99.68134 c -12.72185,13.84911 -30.43582,19.08278 -38.085035,14.65429 -8.212841,-4.75057 -4.992119,-25.20215 10.628385,-39.85644 9.50113,-8.9375 21.73987,-17.23086 29.87219,-22.3035 1.85192,-1.12725 4.58953,-2.73761 7.89077,-4.75056 0.56363,-0.32207 0.8857,-0.48311 0.8857,-0.48311 v 0 c 0.64414,-0.40259 1.28829,-0.80518 1.93243,-1.20777 5.71678,20.93469 0.24156,39.37333 -13.12444,53.94709 z m 92.59576,-62.96511 c -4.4285,10.78942 -13.68807,38.40711 -19.32434,36.87726 -4.83108,-1.28828 -7.81025,-22.22298 -0.96621,-42.91611 3.46227,-10.38683 10.78942,-22.78661 15.05687,-27.61769 6.92455,-7.72974 14.57377,-10.30631 16.42568,-7.16611 2.33503,4.10642 -8.45439,34.05913 -11.192,40.82265 z m 76.41162,36.55519 c -1.85191,0.96622 -3.62331,1.61036 -4.42849,1.12725 -0.56363,-0.32207 0.80518,-1.61036 0.80518,-1.61036 0,0 9.58165,-10.30631 13.366,-14.97635 2.17398,-2.73762 4.75056,-5.95834 7.48817,-9.58165 0,0.32207 0,0.72466 0,1.04673 0,12.31927 -11.91667,20.61262 -17.23086,23.99438 z m 58.93921,-13.44651 c -1.3688,-0.96622 -1.12725,-4.18694 3.46228,-14.2517 1.7714,-3.94538 5.95833,-10.54786 13.12444,-16.90879 0.80518,2.57658 1.36881,5.07264 1.28829,7.40766 -0.0805,15.53999 -11.19201,21.33729 -17.87501,23.75283 z"
     id="path2"
     style="stroke-width:8.705;stroke:none;stroke-opacity:1;stroke-miterlimit:4;stroke-dasharray:none" /></g></svg>
