<?xml version="1.0" encoding="utf-8"?>
<svg id="svg2983" viewBox="0 0 1920 1925.7" version="1.1" xmlns="http://www.w3.org/2000/svg">
  <defs id="defs2985">
    <linearGradient id="linearGradient3036" x1="2676" gradientUnits="userSpaceOnUse" y1="-453.56" gradientTransform="translate(.0000093750)" x2="2676" y2="1472.2">
      <stop id="stop3032" offset="0"/>
      <stop id="stop3042" stop-color="#062a4c" offset="0.3802"/>
      <stop id="stop3040" stop-color="#6b4445" offset="0.6832"/>
      <stop id="stop3038" stop-color="#d78d22" offset="0.868"/>
      <stop id="stop3034" stop-color="#d58c22" offset="1"/>
    </linearGradient>
  </defs>
  <g id="layer1" transform="translate(-1716 453.56)">
    <g id="g5195">
      <rect id="rect3028" height="1925.7" width="1920" y="-453.56" x="1716" fill="url(#linearGradient3036)"/>
      <g id="g4854" fill="#fff">
        <path id="path3812" transform="matrix(.25754 0 0 .25754 1426.3 289.37)" d="m1944.9 401.67c0 6.5819-5.3356 11.918-11.918 11.918-6.5819 0-11.918-5.3357-11.918-11.918 0-6.5819 5.3356-11.918 11.918-11.918 6.5819 0 11.918 5.3357 11.918 11.918z"/>
        <path id="path4116" transform="matrix(.18831 0 0 .18831 1412.7 -384.1)" d="m1944.9 401.67c0 6.5819-5.3356 11.918-11.918 11.918-6.5819 0-11.918-5.3357-11.918-11.918 0-6.5819 5.3356-11.918 11.918-11.918 6.5819 0 11.918 5.3357 11.918 11.918z"/>
        <path id="path4118" transform="matrix(.22097 0 0 .22097 1702.2 -273.71)" d="m1944.9 401.67c0 6.5819-5.3356 11.918-11.918 11.918-6.5819 0-11.918-5.3357-11.918-11.918 0-6.5819 5.3356-11.918 11.918-11.918 6.5819 0 11.918 5.3357 11.918 11.918z"/>
        <path id="path4120" transform="matrix(.25043 0 0 .25043 1487.9 -374.78)" d="m1944.9 401.67c0 6.5819-5.3356 11.918-11.918 11.918-6.5819 0-11.918-5.3357-11.918-11.918 0-6.5819 5.3356-11.918 11.918-11.918 6.5819 0 11.918 5.3357 11.918 11.918z"/>
        <path id="path4122" transform="matrix(.18653 0 0 .18653 1639.7 -31.384)" d="m1944.9 401.67c0 6.5819-5.3356 11.918-11.918 11.918-6.5819 0-11.918-5.3357-11.918-11.918 0-6.5819 5.3356-11.918 11.918-11.918 6.5819 0 11.918 5.3357 11.918 11.918z"/>
        <path id="path4124" transform="matrix(.19479 0 0 .19479 2144.5 -212.55)" d="m1944.9 401.67c0 6.5819-5.3356 11.918-11.918 11.918-6.5819 0-11.918-5.3357-11.918-11.918 0-6.5819 5.3356-11.918 11.918-11.918 6.5819 0 11.918 5.3357 11.918 11.918z"/>
        <path id="path4126" transform="matrix(.20394 0 0 .20394 2057 -197.26)" d="m1944.9 401.67c0 6.5819-5.3356 11.918-11.918 11.918-6.5819 0-11.918-5.3357-11.918-11.918 0-6.5819 5.3356-11.918 11.918-11.918 6.5819 0 11.918 5.3357 11.918 11.918z"/>
        <path id="path4128" transform="matrix(.17620 0 0 .17620 2321 -169.44)" d="m1944.9 401.67c0 6.5819-5.3356 11.918-11.918 11.918-6.5819 0-11.918-5.3357-11.918-11.918 0-6.5819 5.3356-11.918 11.918-11.918 6.5819 0 11.918 5.3357 11.918 11.918z"/>
        <path id="path4130" transform="matrix(.30329 0 0 .30329 2093.6 -177.22)" d="m1944.9 401.67c0 6.5819-5.3356 11.918-11.918 11.918-6.5819 0-11.918-5.3357-11.918-11.918 0-6.5819 5.3356-11.918 11.918-11.918 6.5819 0 11.918 5.3357 11.918 11.918z"/>
        <path id="path4132" transform="matrix(.30592 0 0 .30592 1796.1 -223.77)" d="m1944.9 401.67c0 6.5819-5.3356 11.918-11.918 11.918-6.5819 0-11.918-5.3357-11.918-11.918 0-6.5819 5.3356-11.918 11.918-11.918 6.5819 0 11.918 5.3357 11.918 11.918z"/>
        <path id="path4134" transform="matrix(.15960 0 0 .15960 2364.3 -196.74)" d="m1944.9 401.67c0 6.5819-5.3356 11.918-11.918 11.918-6.5819 0-11.918-5.3357-11.918-11.918 0-6.5819 5.3356-11.918 11.918-11.918 6.5819 0 11.918 5.3357 11.918 11.918z"/>
        <path id="path4136" transform="matrix(.33939 0 0 .33939 1971 -503.37)" d="m1944.9 401.67c0 6.5819-5.3356 11.918-11.918 11.918-6.5819 0-11.918-5.3357-11.918-11.918 0-6.5819 5.3356-11.918 11.918-11.918 6.5819 0 11.918 5.3357 11.918 11.918z"/>
        <path id="path4138" transform="matrix(.24274 0 0 .24274 2323.9 -387.81)" d="m1944.9 401.67c0 6.5819-5.3356 11.918-11.918 11.918-6.5819 0-11.918-5.3357-11.918-11.918 0-6.5819 5.3356-11.918 11.918-11.918 6.5819 0 11.918 5.3357 11.918 11.918z"/>
        <path id="path4140" transform="matrix(.22580 0 0 .22580 2210.2 -203.92)" d="m1944.9 401.67c0 6.5819-5.3356 11.918-11.918 11.918-6.5819 0-11.918-5.3357-11.918-11.918 0-6.5819 5.3356-11.918 11.918-11.918 6.5819 0 11.918 5.3357 11.918 11.918z"/>
        <path id="path4142" transform="matrix(.30872 0 0 .30872 2489.2 -378.81)" d="m1944.9 401.67c0 6.5819-5.3356 11.918-11.918 11.918-6.5819 0-11.918-5.3357-11.918-11.918 0-6.5819 5.3356-11.918 11.918-11.918 6.5819 0 11.918 5.3357 11.918 11.918z"/>
        <path id="path4144" transform="matrix(.26764 0 0 .26764 2427.2 -477.3)" d="m1944.9 401.67c0 6.5819-5.3356 11.918-11.918 11.918-6.5819 0-11.918-5.3357-11.918-11.918 0-6.5819 5.3356-11.918 11.918-11.918 6.5819 0 11.918 5.3357 11.918 11.918z"/>
        <path id="path4146" transform="matrix(.298 0 0 .298 2403.1 -228.97)" d="m1944.9 401.67c0 6.5819-5.3356 11.918-11.918 11.918-6.5819 0-11.918-5.3357-11.918-11.918 0-6.5819 5.3356-11.918 11.918-11.918 6.5819 0 11.918 5.3357 11.918 11.918z"/>
        <path id="path4148" transform="matrix(.27583 0 0 .27583 2462.9 -324.98)" d="m1944.9 401.67c0 6.5819-5.3356 11.918-11.918 11.918-6.5819 0-11.918-5.3357-11.918-11.918 0-6.5819 5.3356-11.918 11.918-11.918 6.5819 0 11.918 5.3357 11.918 11.918z"/>
        <path id="path4150" transform="matrix(.36790 0 0 .36790 2395.3 -373.42)" d="m1944.9 401.67c0 6.5819-5.3356 11.918-11.918 11.918-6.5819 0-11.918-5.3357-11.918-11.918 0-6.5819 5.3356-11.918 11.918-11.918 6.5819 0 11.918 5.3357 11.918 11.918z"/>
        <path id="path4152" transform="matrix(.27231 0 0 .27231 2416.2 -439.76)" d="m1944.9 401.67c0 6.5819-5.3356 11.918-11.918 11.918-6.5819 0-11.918-5.3357-11.918-11.918 0-6.5819 5.3356-11.918 11.918-11.918 6.5819 0 11.918 5.3357 11.918 11.918z"/>
        <path id="path4154" transform="matrix(.15761 0 0 .15761 2834.6 -159.07)" d="m1944.9 401.67c0 6.5819-5.3356 11.918-11.918 11.918-6.5819 0-11.918-5.3357-11.918-11.918 0-6.5819 5.3356-11.918 11.918-11.918 6.5819 0 11.918 5.3357 11.918 11.918z"/>
        <path id="path4156" transform="matrix(.13793 0 0 .13793 2796 -444.02)" d="m1944.9 401.67c0 6.5819-5.3356 11.918-11.918 11.918-6.5819 0-11.918-5.3357-11.918-11.918 0-6.5819 5.3356-11.918 11.918-11.918 6.5819 0 11.918 5.3357 11.918 11.918z"/>
        <path id="path4160" transform="matrix(.29474 0 0 .29474 2735.6 -426.04)" d="m1944.9 401.67c0 6.5819-5.3356 11.918-11.918 11.918-6.5819 0-11.918-5.3357-11.918-11.918 0-6.5819 5.3356-11.918 11.918-11.918 6.5819 0 11.918 5.3357 11.918 11.918z"/>
        <path id="path4162" transform="matrix(.20504 0 0 .20504 2720 -249.3)" d="m1944.9 401.67c0 6.5819-5.3356 11.918-11.918 11.918-6.5819 0-11.918-5.3357-11.918-11.918 0-6.5819 5.3356-11.918 11.918-11.918 6.5819 0 11.918 5.3357 11.918 11.918z"/>
        <path id="path4164" transform="matrix(.22726 0 0 .22726 2844.4 -348.7)" d="m1944.9 401.67c0 6.5819-5.3356 11.918-11.918 11.918-6.5819 0-11.918-5.3357-11.918-11.918 0-6.5819 5.3356-11.918 11.918-11.918 6.5819 0 11.918 5.3357 11.918 11.918z"/>
        <path id="path4166" transform="matrix(.27079 0 0 .27079 2720.9 75.366)" d="m1944.9 401.67c0 6.5819-5.3356 11.918-11.918 11.918-6.5819 0-11.918-5.3357-11.918-11.918 0-6.5819 5.3356-11.918 11.918-11.918 6.5819 0 11.918 5.3357 11.918 11.918z"/>
        <path id="path4168" transform="matrix(.35248 0 0 .35248 2703.4 -197.46)" d="m1944.9 401.67c0 6.5819-5.3356 11.918-11.918 11.918-6.5819 0-11.918-5.3357-11.918-11.918 0-6.5819 5.3356-11.918 11.918-11.918 6.5819 0 11.918 5.3357 11.918 11.918z"/>
        <path id="path4170" transform="matrix(.29712 0 0 .29712 2349.3 66.655)" d="m1944.9 401.67c0 6.5819-5.3356 11.918-11.918 11.918-6.5819 0-11.918-5.3357-11.918-11.918 0-6.5819 5.3356-11.918 11.918-11.918 6.5819 0 11.918 5.3357 11.918 11.918z"/>
        <path id="path4172" transform="matrix(.36953 0 0 .36953 2412.7 -27.571)" d="m1944.9 401.67c0 6.5819-5.3356 11.918-11.918 11.918-6.5819 0-11.918-5.3357-11.918-11.918 0-6.5819 5.3356-11.918 11.918-11.918 6.5819 0 11.918 5.3357 11.918 11.918z"/>
        <path id="path4174" transform="matrix(.33384 0 0 .33384 2216.5 -62.015)" d="m1944.9 401.67c0 6.5819-5.3356 11.918-11.918 11.918-6.5819 0-11.918-5.3357-11.918-11.918 0-6.5819 5.3356-11.918 11.918-11.918 6.5819 0 11.918 5.3357 11.918 11.918z"/>
        <path id="path4176" transform="matrix(.25259 0 0 .25259 2395.1 136.85)" d="m1944.9 401.67c0 6.5819-5.3356 11.918-11.918 11.918-6.5819 0-11.918-5.3357-11.918-11.918 0-6.5819 5.3356-11.918 11.918-11.918 6.5819 0 11.918 5.3357 11.918 11.918z"/>
        <path id="path4178" transform="matrix(.13496 0 0 .13496 2573.2 -177.38)" d="m1944.9 401.67c0 6.5819-5.3356 11.918-11.918 11.918-6.5819 0-11.918-5.3357-11.918-11.918 0-6.5819 5.3356-11.918 11.918-11.918 6.5819 0 11.918 5.3357 11.918 11.918z"/>
        <path id="path4180" transform="matrix(.26154 0 0 .26154 2553.6 -29.289)" d="m1944.9 401.67c0 6.5819-5.3356 11.918-11.918 11.918-6.5819 0-11.918-5.3357-11.918-11.918 0-6.5819 5.3356-11.918 11.918-11.918 6.5819 0 11.918 5.3357 11.918 11.918z"/>
        <path id="path4182" transform="matrix(.24357 0 0 .24357 2385.7 5.1634)" d="m1944.9 401.67c0 6.5819-5.3356 11.918-11.918 11.918-6.5819 0-11.918-5.3357-11.918-11.918 0-6.5819 5.3356-11.918 11.918-11.918 6.5819 0 11.918 5.3357 11.918 11.918z"/>
        <path id="path4184" transform="matrix(.37388 0 0 .37388 1727.2 -294.35)" d="m1944.9 401.67c0 6.5819-5.3356 11.918-11.918 11.918-6.5819 0-11.918-5.3357-11.918-11.918 0-6.5819 5.3356-11.918 11.918-11.918 6.5819 0 11.918 5.3357 11.918 11.918z"/>
        <path id="path4186" transform="matrix(.22262 0 0 .22262 2265.9 -75.879)" d="m1944.9 401.67c0 6.5819-5.3356 11.918-11.918 11.918-6.5819 0-11.918-5.3357-11.918-11.918 0-6.5819 5.3356-11.918 11.918-11.918 6.5819 0 11.918 5.3357 11.918 11.918z"/>
        <path id="path4188" transform="matrix(.15154 0 0 .15154 2508.1 -94.937)" d="m1944.9 401.67c0 6.5819-5.3356 11.918-11.918 11.918-6.5819 0-11.918-5.3357-11.918-11.918 0-6.5819 5.3356-11.918 11.918-11.918 6.5819 0 11.918 5.3357 11.918 11.918z"/>
        <path id="path4190" transform="matrix(.19141 0 0 .19141 2205.5 -119.29)" d="m1944.9 401.67c0 6.5819-5.3356 11.918-11.918 11.918-6.5819 0-11.918-5.3357-11.918-11.918 0-6.5819 5.3356-11.918 11.918-11.918 6.5819 0 11.918 5.3357 11.918 11.918z"/>
        <path id="path4192" transform="matrix(.37527 0 0 .37527 1516.3 -99.79)" d="m1944.9 401.67c0 6.5819-5.3356 11.918-11.918 11.918-6.5819 0-11.918-5.3357-11.918-11.918 0-6.5819 5.3356-11.918 11.918-11.918 6.5819 0 11.918 5.3357 11.918 11.918z"/>
        <path id="path4194" transform="matrix(.15060 0 0 .15060 1912.8 -429.83)" d="m1944.9 401.67c0 6.5819-5.3356 11.918-11.918 11.918-6.5819 0-11.918-5.3357-11.918-11.918 0-6.5819 5.3356-11.918 11.918-11.918 6.5819 0 11.918 5.3357 11.918 11.918z"/>
        <path id="path4196" transform="matrix(.32376 0 0 .32376 1438.6 -486.06)" d="m1944.9 401.67c0 6.5819-5.3356 11.918-11.918 11.918-6.5819 0-11.918-5.3357-11.918-11.918 0-6.5819 5.3356-11.918 11.918-11.918 6.5819 0 11.918 5.3357 11.918 11.918z"/>
        <path id="path4198" transform="matrix(.36565 0 0 .36565 1484.8 -482.38)" d="m1944.9 401.67c0 6.5819-5.3356 11.918-11.918 11.918-6.5819 0-11.918-5.3357-11.918-11.918 0-6.5819 5.3356-11.918 11.918-11.918 6.5819 0 11.918 5.3357 11.918 11.918z"/>
        <path id="path4200" transform="matrix(.27237 0 0 .27237 1317.1 -265.29)" d="m1944.9 401.67c0 6.5819-5.3356 11.918-11.918 11.918-6.5819 0-11.918-5.3357-11.918-11.918 0-6.5819 5.3356-11.918 11.918-11.918 6.5819 0 11.918 5.3357 11.918 11.918z"/>
        <path id="path4202" transform="matrix(.27905 0 0 .27905 1215.9 -246.43)" d="m1944.9 401.67c0 6.5819-5.3356 11.918-11.918 11.918-6.5819 0-11.918-5.3357-11.918-11.918 0-6.5819 5.3356-11.918 11.918-11.918 6.5819 0 11.918 5.3357 11.918 11.918z"/>
        <path id="path4204" transform="matrix(.25083 0 0 .25083 1590.5 -120.18)" d="m1944.9 401.67c0 6.5819-5.3356 11.918-11.918 11.918-6.5819 0-11.918-5.3357-11.918-11.918 0-6.5819 5.3356-11.918 11.918-11.918 6.5819 0 11.918 5.3357 11.918 11.918z"/>
        <path id="path4206" transform="matrix(.23209 0 0 .23209 1729.5 -151.68)" d="m1944.9 401.67c0 6.5819-5.3356 11.918-11.918 11.918-6.5819 0-11.918-5.3357-11.918-11.918 0-6.5819 5.3356-11.918 11.918-11.918 6.5819 0 11.918 5.3357 11.918 11.918z"/>
        <path id="path4208" transform="matrix(.26141 0 0 .26141 1928.3 -229.83)" d="m1944.9 401.67c0 6.5819-5.3356 11.918-11.918 11.918-6.5819 0-11.918-5.3357-11.918-11.918 0-6.5819 5.3356-11.918 11.918-11.918 6.5819 0 11.918 5.3357 11.918 11.918z"/>
        <path id="path4210" transform="matrix(.23614 0 0 .23614 1604.8 -392.84)" d="m1944.9 401.67c0 6.5819-5.3356 11.918-11.918 11.918-6.5819 0-11.918-5.3357-11.918-11.918 0-6.5819 5.3356-11.918 11.918-11.918 6.5819 0 11.918 5.3357 11.918 11.918z"/>
        <path id="path4212" transform="matrix(.35434 0 0 .35434 2044.7 -395.31)" d="m1944.9 401.67c0 6.5819-5.3356 11.918-11.918 11.918-6.5819 0-11.918-5.3357-11.918-11.918 0-6.5819 5.3356-11.918 11.918-11.918 6.5819 0 11.918 5.3357 11.918 11.918z"/>
        <path id="path4214" transform="matrix(.27080 0 0 .27080 1989.3 -519.34)" d="m1944.9 401.67c0 6.5819-5.3356 11.918-11.918 11.918-6.5819 0-11.918-5.3357-11.918-11.918 0-6.5819 5.3356-11.918 11.918-11.918 6.5819 0 11.918 5.3357 11.918 11.918z"/>
        <path id="path4216" transform="matrix(.24830 0 0 .24830 1864.2 -506.72)" d="m1944.9 401.67c0 6.5819-5.3356 11.918-11.918 11.918-6.5819 0-11.918-5.3357-11.918-11.918 0-6.5819 5.3356-11.918 11.918-11.918 6.5819 0 11.918 5.3357 11.918 11.918z"/>
        <path id="path4218" transform="matrix(.29059 0 0 .29059 1668 -450.99)" d="m1944.9 401.67c0 6.5819-5.3356 11.918-11.918 11.918-6.5819 0-11.918-5.3357-11.918-11.918 0-6.5819 5.3356-11.918 11.918-11.918 6.5819 0 11.918 5.3357 11.918 11.918z"/>
        <path id="path4220" transform="matrix(.14333 0 0 .14333 2019.9 -417.55)" d="m1944.9 401.67c0 6.5819-5.3356 11.918-11.918 11.918-6.5819 0-11.918-5.3357-11.918-11.918 0-6.5819 5.3356-11.918 11.918-11.918 6.5819 0 11.918 5.3357 11.918 11.918z"/>
        <path id="path4222" transform="matrix(.17383 0 0 .17383 1878.4 -506.03)" d="m1944.9 401.67c0 6.5819-5.3356 11.918-11.918 11.918-6.5819 0-11.918-5.3357-11.918-11.918 0-6.5819 5.3356-11.918 11.918-11.918 6.5819 0 11.918 5.3357 11.918 11.918z"/>
        <path id="path4226" transform="matrix(.16620 0 0 .16620 1743.7 -328.74)" d="m1944.9 401.67c0 6.5819-5.3356 11.918-11.918 11.918-6.5819 0-11.918-5.3357-11.918-11.918 0-6.5819 5.3356-11.918 11.918-11.918 6.5819 0 11.918 5.3357 11.918 11.918z"/>
        <path id="path4228" transform="matrix(.24204 0 0 .24204 1537.8 -76.198)" d="m1944.9 401.67c0 6.5819-5.3356 11.918-11.918 11.918-6.5819 0-11.918-5.3357-11.918-11.918 0-6.5819 5.3356-11.918 11.918-11.918 6.5819 0 11.918 5.3357 11.918 11.918z"/>
        <path id="path4230" transform="matrix(.15590 0 0 .15590 1802.6 -333.25)" d="m1944.9 401.67c0 6.5819-5.3356 11.918-11.918 11.918-6.5819 0-11.918-5.3357-11.918-11.918 0-6.5819 5.3356-11.918 11.918-11.918 6.5819 0 11.918 5.3357 11.918 11.918z"/>
        <path id="path4232" transform="matrix(.18135 0 0 .18135 1663.7 -146.61)" d="m1944.9 401.67c0 6.5819-5.3356 11.918-11.918 11.918-6.5819 0-11.918-5.3357-11.918-11.918 0-6.5819 5.3356-11.918 11.918-11.918 6.5819 0 11.918 5.3357 11.918 11.918z"/>
        <path id="path4234" transform="matrix(.18517 0 0 .18517 2137.5 -204.64)" d="m1944.9 401.67c0 6.5819-5.3356 11.918-11.918 11.918-6.5819 0-11.918-5.3357-11.918-11.918 0-6.5819 5.3356-11.918 11.918-11.918 6.5819 0 11.918 5.3357 11.918 11.918z"/>
        <path id="path4236" transform="matrix(.19359 0 0 .19359 2276.7 -356.31)" d="m1944.9 401.67c0 6.5819-5.3356 11.918-11.918 11.918-6.5819 0-11.918-5.3357-11.918-11.918 0-6.5819 5.3356-11.918 11.918-11.918 6.5819 0 11.918 5.3357 11.918 11.918z"/>
        <path id="path4238" transform="matrix(.20606 0 0 .20606 2019.7 -257.61)" d="m1944.9 401.67c0 6.5819-5.3356 11.918-11.918 11.918-6.5819 0-11.918-5.3357-11.918-11.918 0-6.5819 5.3356-11.918 11.918-11.918 6.5819 0 11.918 5.3357 11.918 11.918z"/>
        <path id="path4240" transform="matrix(.21213 0 0 .21213 2350.2 -445.55)" d="m1944.9 401.67c0 6.5819-5.3356 11.918-11.918 11.918-6.5819 0-11.918-5.3357-11.918-11.918 0-6.5819 5.3356-11.918 11.918-11.918 6.5819 0 11.918 5.3357 11.918 11.918z"/>
        <path id="path4242" transform="matrix(.37212 0 0 .37212 2039.8 -460.6)" d="m1944.9 401.67c0 6.5819-5.3356 11.918-11.918 11.918-6.5819 0-11.918-5.3357-11.918-11.918 0-6.5819 5.3356-11.918 11.918-11.918 6.5819 0 11.918 5.3357 11.918 11.918z"/>
        <path id="path4244" transform="matrix(.32931 0 0 .32931 1857 -554.39)" d="m1944.9 401.67c0 6.5819-5.3356 11.918-11.918 11.918-6.5819 0-11.918-5.3357-11.918-11.918 0-6.5819 5.3356-11.918 11.918-11.918 6.5819 0 11.918 5.3357 11.918 11.918z"/>
        <path id="path4246" transform="matrix(.17949 0 0 .17949 2489 -248.29)" d="m1944.9 401.67c0 6.5819-5.3356 11.918-11.918 11.918-6.5819 0-11.918-5.3357-11.918-11.918 0-6.5819 5.3356-11.918 11.918-11.918 6.5819 0 11.918 5.3357 11.918 11.918z"/>
        <path id="path4248" transform="matrix(.34688 0 0 .34688 2379.6 -236.32)" d="m1944.9 401.67c0 6.5819-5.3356 11.918-11.918 11.918-6.5819 0-11.918-5.3357-11.918-11.918 0-6.5819 5.3356-11.918 11.918-11.918 6.5819 0 11.918 5.3357 11.918 11.918z"/>
        <path id="path4250" transform="matrix(.29279 0 0 .29279 2640.6 214.14)" d="m1944.9 401.67c0 6.5819-5.3356 11.918-11.918 11.918-6.5819 0-11.918-5.3357-11.918-11.918 0-6.5819 5.3356-11.918 11.918-11.918 6.5819 0 11.918 5.3357 11.918 11.918z"/>
        <path id="path4252" transform="matrix(.15334 0 0 .15334 2861.6 20.871)" d="m1944.9 401.67c0 6.5819-5.3356 11.918-11.918 11.918-6.5819 0-11.918-5.3357-11.918-11.918 0-6.5819 5.3356-11.918 11.918-11.918 6.5819 0 11.918 5.3357 11.918 11.918z"/>
        <path id="path4254" transform="matrix(.35659 0 0 .35659 2754.4 91.682)" d="m1944.9 401.67c0 6.5819-5.3356 11.918-11.918 11.918-6.5819 0-11.918-5.3357-11.918-11.918 0-6.5819 5.3356-11.918 11.918-11.918 6.5819 0 11.918 5.3357 11.918 11.918z"/>
        <path id="path4256" transform="matrix(.29535 0 0 .29535 2703.1 131.38)" d="m1944.9 401.67c0 6.5819-5.3356 11.918-11.918 11.918-6.5819 0-11.918-5.3357-11.918-11.918 0-6.5819 5.3356-11.918 11.918-11.918 6.5819 0 11.918 5.3357 11.918 11.918z"/>
        <path id="path4258" transform="matrix(.23499 0 0 .23499 2976.8 151.13)" d="m1944.9 401.67c0 6.5819-5.3356 11.918-11.918 11.918-6.5819 0-11.918-5.3357-11.918-11.918 0-6.5819 5.3356-11.918 11.918-11.918 6.5819 0 11.918 5.3357 11.918 11.918z"/>
        <path id="path4260" transform="matrix(.32288 0 0 .32288 2800.7 111.59)" d="m1944.9 401.67c0 6.5819-5.3356 11.918-11.918 11.918-6.5819 0-11.918-5.3357-11.918-11.918 0-6.5819 5.3356-11.918 11.918-11.918 6.5819 0 11.918 5.3357 11.918 11.918z"/>
        <path id="path4262" transform="matrix(.28292 0 0 .28292 2762.6 169.01)" d="m1944.9 401.67c0 6.5819-5.3356 11.918-11.918 11.918-6.5819 0-11.918-5.3357-11.918-11.918 0-6.5819 5.3356-11.918 11.918-11.918 6.5819 0 11.918 5.3357 11.918 11.918z"/>
        <path id="path4264" transform="matrix(.15987 0 0 .15987 3211.8 306.39)" d="m1944.9 401.67c0 6.5819-5.3356 11.918-11.918 11.918-6.5819 0-11.918-5.3357-11.918-11.918 0-6.5819 5.3356-11.918 11.918-11.918 6.5819 0 11.918 5.3357 11.918 11.918z"/>
        <path id="path4266" transform="matrix(.20541 0 0 .20541 3144.5 157.01)" d="m1944.9 401.67c0 6.5819-5.3356 11.918-11.918 11.918-6.5819 0-11.918-5.3357-11.918-11.918 0-6.5819 5.3356-11.918 11.918-11.918 6.5819 0 11.918 5.3357 11.918 11.918z"/>
        <path id="path4268" transform="matrix(.14101 0 0 .14101 2969.9 309.14)" d="m1944.9 401.67c0 6.5819-5.3356 11.918-11.918 11.918-6.5819 0-11.918-5.3357-11.918-11.918 0-6.5819 5.3356-11.918 11.918-11.918 6.5819 0 11.918 5.3357 11.918 11.918z"/>
        <path id="path4276" transform="matrix(.20015 0 0 .20015 3050.5 -389.84)" d="m1944.9 401.67c0 6.5819-5.3356 11.918-11.918 11.918-6.5819 0-11.918-5.3357-11.918-11.918 0-6.5819 5.3356-11.918 11.918-11.918 6.5819 0 11.918 5.3357 11.918 11.918z"/>
        <path id="path4278" transform="matrix(.28610 0 0 .28610 2645.9 -369.37)" d="m1944.9 401.67c0 6.5819-5.3356 11.918-11.918 11.918-6.5819 0-11.918-5.3357-11.918-11.918 0-6.5819 5.3356-11.918 11.918-11.918 6.5819 0 11.918 5.3357 11.918 11.918z"/>
        <path id="path4280" transform="matrix(.37759 0 0 .37759 2642 -113.37)" d="m1944.9 401.67c0 6.5819-5.3356 11.918-11.918 11.918-6.5819 0-11.918-5.3357-11.918-11.918 0-6.5819 5.3356-11.918 11.918-11.918 6.5819 0 11.918 5.3357 11.918 11.918z"/>
        <path id="path4282" transform="matrix(.22917 0 0 .22917 2798.2 59.034)" d="m1944.9 401.67c0 6.5819-5.3356 11.918-11.918 11.918-6.5819 0-11.918-5.3357-11.918-11.918 0-6.5819 5.3356-11.918 11.918-11.918 6.5819 0 11.918 5.3357 11.918 11.918z"/>
        <path id="path4284" transform="matrix(.37583 0 0 .37583 2382.7 -257.01)" d="m1944.9 401.67c0 6.5819-5.3356 11.918-11.918 11.918-6.5819 0-11.918-5.3357-11.918-11.918 0-6.5819 5.3356-11.918 11.918-11.918 6.5819 0 11.918 5.3357 11.918 11.918z"/>
        <path id="path4286" transform="matrix(.25598 0 0 .25598 2713.6 268.9)" d="m1944.9 401.67c0 6.5819-5.3356 11.918-11.918 11.918-6.5819 0-11.918-5.3357-11.918-11.918 0-6.5819 5.3356-11.918 11.918-11.918 6.5819 0 11.918 5.3357 11.918 11.918z"/>
        <path id="path4288" transform="matrix(.24696 0 0 .24696 2727.7 266.4)" d="m1944.9 401.67c0 6.5819-5.3356 11.918-11.918 11.918-6.5819 0-11.918-5.3357-11.918-11.918 0-6.5819 5.3356-11.918 11.918-11.918 6.5819 0 11.918 5.3357 11.918 11.918z"/>
        <path id="path4290" transform="matrix(.25667 0 0 .25667 2875 -8.2068)" d="m1944.9 401.67c0 6.5819-5.3356 11.918-11.918 11.918-6.5819 0-11.918-5.3357-11.918-11.918 0-6.5819 5.3356-11.918 11.918-11.918 6.5819 0 11.918 5.3357 11.918 11.918z"/>
        <path id="path4292" transform="matrix(.29842 0 0 .29842 2860.4 112.47)" d="m1944.9 401.67c0 6.5819-5.3356 11.918-11.918 11.918-6.5819 0-11.918-5.3357-11.918-11.918 0-6.5819 5.3356-11.918 11.918-11.918 6.5819 0 11.918 5.3357 11.918 11.918z"/>
        <path id="path4294" transform="matrix(.18918 0 0 .18918 2961.8 378.31)" d="m1944.9 401.67c0 6.5819-5.3356 11.918-11.918 11.918-6.5819 0-11.918-5.3357-11.918-11.918 0-6.5819 5.3356-11.918 11.918-11.918 6.5819 0 11.918 5.3357 11.918 11.918z"/>
        <path id="path4296" transform="matrix(.18724 0 0 .18724 3104.4 387.79)" d="m1944.9 401.67c0 6.5819-5.3356 11.918-11.918 11.918-6.5819 0-11.918-5.3357-11.918-11.918 0-6.5819 5.3356-11.918 11.918-11.918 6.5819 0 11.918 5.3357 11.918 11.918z"/>
        <path id="path4298" transform="matrix(.19984 0 0 .19984 2975.7 363.03)" d="m1944.9 401.67c0 6.5819-5.3356 11.918-11.918 11.918-6.5819 0-11.918-5.3357-11.918-11.918 0-6.5819 5.3356-11.918 11.918-11.918 6.5819 0 11.918 5.3357 11.918 11.918z"/>
        <path id="path4300" transform="matrix(.17291 0 0 .17291 3097.2 462.89)" d="m1944.9 401.67c0 6.5819-5.3356 11.918-11.918 11.918-6.5819 0-11.918-5.3357-11.918-11.918 0-6.5819 5.3356-11.918 11.918-11.918 6.5819 0 11.918 5.3357 11.918 11.918z"/>
        <path id="path4302" transform="matrix(.37185 0 0 .37185 2659.2 204.74)" d="m1944.9 401.67c0 6.5819-5.3356 11.918-11.918 11.918-6.5819 0-11.918-5.3357-11.918-11.918 0-6.5819 5.3356-11.918 11.918-11.918 6.5819 0 11.918 5.3357 11.918 11.918z"/>
        <path id="path4304" transform="matrix(.35142 0 0 .35142 2797.4 393.07)" d="m1944.9 401.67c0 6.5819-5.3356 11.918-11.918 11.918-6.5819 0-11.918-5.3357-11.918-11.918 0-6.5819 5.3356-11.918 11.918-11.918 6.5819 0 11.918 5.3357 11.918 11.918z"/>
        <path id="path4306" transform="matrix(.21921 0 0 .21921 3066.8 499.11)" d="m1944.9 401.67c0 6.5819-5.3356 11.918-11.918 11.918-6.5819 0-11.918-5.3357-11.918-11.918 0-6.5819 5.3356-11.918 11.918-11.918 6.5819 0 11.918 5.3357 11.918 11.918z"/>
        <path id="path4308" transform="matrix(.24089 0 0 .24089 3077.3 578.61)" d="m1944.9 401.67c0 6.5819-5.3356 11.918-11.918 11.918-6.5819 0-11.918-5.3357-11.918-11.918 0-6.5819 5.3356-11.918 11.918-11.918 6.5819 0 11.918 5.3357 11.918 11.918z"/>
        <path id="path4310" transform="matrix(.15988 0 0 .15988 2878 680.09)" d="m1944.9 401.67c0 6.5819-5.3356 11.918-11.918 11.918-6.5819 0-11.918-5.3357-11.918-11.918 0-6.5819 5.3356-11.918 11.918-11.918 6.5819 0 11.918 5.3357 11.918 11.918z"/>
        <path id="path4312" transform="matrix(.14539 0 0 .14539 2613.4 612.23)" d="m1944.9 401.67c0 6.5819-5.3356 11.918-11.918 11.918-6.5819 0-11.918-5.3357-11.918-11.918 0-6.5819 5.3356-11.918 11.918-11.918 6.5819 0 11.918 5.3357 11.918 11.918z"/>
        <path id="path4314" transform="matrix(.22344 0 0 .22344 2862.8 641.93)" d="m1944.9 401.67c0 6.5819-5.3356 11.918-11.918 11.918-6.5819 0-11.918-5.3357-11.918-11.918 0-6.5819 5.3356-11.918 11.918-11.918 6.5819 0 11.918 5.3357 11.918 11.918z"/>
        <path id="path4316" transform="matrix(.29187 0 0 .29187 2742.8 352.72)" d="m1944.9 401.67c0 6.5819-5.3356 11.918-11.918 11.918-6.5819 0-11.918-5.3357-11.918-11.918 0-6.5819 5.3356-11.918 11.918-11.918 6.5819 0 11.918 5.3357 11.918 11.918z"/>
        <path id="path4318" transform="matrix(.34485 0 0 .34485 2663.7 139.89)" d="m1944.9 401.67c0 6.5819-5.3356 11.918-11.918 11.918-6.5819 0-11.918-5.3357-11.918-11.918 0-6.5819 5.3356-11.918 11.918-11.918 6.5819 0 11.918 5.3357 11.918 11.918z"/>
        <path id="path4320" transform="matrix(.29559 0 0 .29559 2560.2 348.37)" d="m1944.9 401.67c0 6.5819-5.3356 11.918-11.918 11.918-6.5819 0-11.918-5.3357-11.918-11.918 0-6.5819 5.3356-11.918 11.918-11.918 6.5819 0 11.918 5.3357 11.918 11.918z"/>
        <path id="path4322" transform="matrix(.24615 0 0 .24615 2835.1 376.92)" d="m1944.9 401.67c0 6.5819-5.3356 11.918-11.918 11.918-6.5819 0-11.918-5.3357-11.918-11.918 0-6.5819 5.3356-11.918 11.918-11.918 6.5819 0 11.918 5.3357 11.918 11.918z"/>
        <path id="path4324" transform="matrix(.22603 0 0 .22603 2615.3 250.26)" d="m1944.9 401.67c0 6.5819-5.3356 11.918-11.918 11.918-6.5819 0-11.918-5.3357-11.918-11.918 0-6.5819 5.3356-11.918 11.918-11.918 6.5819 0 11.918 5.3357 11.918 11.918z"/>
        <path id="path4326" transform="matrix(.15269 0 0 .15269 2677.7 316.21)" d="m1944.9 401.67c0 6.5819-5.3356 11.918-11.918 11.918-6.5819 0-11.918-5.3357-11.918-11.918 0-6.5819 5.3356-11.918 11.918-11.918 6.5819 0 11.918 5.3357 11.918 11.918z"/>
        <path id="path4328" transform="matrix(.14953 0 0 .14953 2652.9 721.87)" d="m1944.9 401.67c0 6.5819-5.3356 11.918-11.918 11.918-6.5819 0-11.918-5.3357-11.918-11.918 0-6.5819 5.3356-11.918 11.918-11.918 6.5819 0 11.918 5.3357 11.918 11.918z"/>
        <path id="path4330" transform="matrix(.25695 0 0 .25695 2555.1 644.79)" d="m1944.9 401.67c0 6.5819-5.3356 11.918-11.918 11.918-6.5819 0-11.918-5.3357-11.918-11.918 0-6.5819 5.3356-11.918 11.918-11.918 6.5819 0 11.918 5.3357 11.918 11.918z"/>
        <path id="path4332" transform="matrix(.36520 0 0 .36520 2523.5 698.32)" d="m1944.9 401.67c0 6.5819-5.3356 11.918-11.918 11.918-6.5819 0-11.918-5.3357-11.918-11.918 0-6.5819 5.3356-11.918 11.918-11.918 6.5819 0 11.918 5.3357 11.918 11.918z"/>
        <path id="path4334" transform="matrix(.28885 0 0 .28885 2333.6 424.86)" d="m1944.9 401.67c0 6.5819-5.3356 11.918-11.918 11.918-6.5819 0-11.918-5.3357-11.918-11.918 0-6.5819 5.3356-11.918 11.918-11.918 6.5819 0 11.918 5.3357 11.918 11.918z"/>
        <path id="path4336" transform="matrix(.21842 0 0 .21842 2735.4 744.85)" d="m1944.9 401.67c0 6.5819-5.3356 11.918-11.918 11.918-6.5819 0-11.918-5.3357-11.918-11.918 0-6.5819 5.3356-11.918 11.918-11.918 6.5819 0 11.918 5.3357 11.918 11.918z"/>
        <path id="path4338" transform="matrix(.15599 0 0 .15599 2815.3 497.49)" d="m1944.9 401.67c0 6.5819-5.3356 11.918-11.918 11.918-6.5819 0-11.918-5.3357-11.918-11.918 0-6.5819 5.3356-11.918 11.918-11.918 6.5819 0 11.918 5.3357 11.918 11.918z"/>
        <path id="path4340" transform="matrix(.24640 0 0 .24640 2676.4 109.56)" d="m1944.9 401.67c0 6.5819-5.3356 11.918-11.918 11.918-6.5819 0-11.918-5.3357-11.918-11.918 0-6.5819 5.3356-11.918 11.918-11.918 6.5819 0 11.918 5.3357 11.918 11.918z"/>
        <path id="path4342" transform="matrix(.28342 0 0 .28342 2339.7 165.07)" d="m1944.9 401.67c0 6.5819-5.3356 11.918-11.918 11.918-6.5819 0-11.918-5.3357-11.918-11.918 0-6.5819 5.3356-11.918 11.918-11.918 6.5819 0 11.918 5.3357 11.918 11.918z"/>
        <path id="path4344" transform="matrix(.20205 0 0 .20205 2339.6 324.4)" d="m1944.9 401.67c0 6.5819-5.3356 11.918-11.918 11.918-6.5819 0-11.918-5.3357-11.918-11.918 0-6.5819 5.3356-11.918 11.918-11.918 6.5819 0 11.918 5.3357 11.918 11.918z"/>
        <path id="path4346" transform="matrix(.338 0 0 .338 2161 140.98)" d="m1944.9 401.67c0 6.5819-5.3356 11.918-11.918 11.918-6.5819 0-11.918-5.3357-11.918-11.918 0-6.5819 5.3356-11.918 11.918-11.918 6.5819 0 11.918 5.3357 11.918 11.918z"/>
        <path id="path4348" transform="matrix(.24241 0 0 .24241 2119 282.96)" d="m1944.9 401.67c0 6.5819-5.3356 11.918-11.918 11.918-6.5819 0-11.918-5.3357-11.918-11.918 0-6.5819 5.3356-11.918 11.918-11.918 6.5819 0 11.918 5.3357 11.918 11.918z"/>
        <path id="path4350" transform="matrix(.15222 0 0 .15222 2392.9 451.88)" d="m1944.9 401.67c0 6.5819-5.3356 11.918-11.918 11.918-6.5819 0-11.918-5.3357-11.918-11.918 0-6.5819 5.3356-11.918 11.918-11.918 6.5819 0 11.918 5.3357 11.918 11.918z"/>
        <path id="path4352" transform="matrix(.14954 0 0 .14954 2346.3 847.45)" d="m1944.9 401.67c0 6.5819-5.3356 11.918-11.918 11.918-6.5819 0-11.918-5.3357-11.918-11.918 0-6.5819 5.3356-11.918 11.918-11.918 6.5819 0 11.918 5.3357 11.918 11.918z"/>
        <path id="path4354" transform="matrix(.31033 0 0 .31033 1987.2 343.83)" d="m1944.9 401.67c0 6.5819-5.3356 11.918-11.918 11.918-6.5819 0-11.918-5.3357-11.918-11.918 0-6.5819 5.3356-11.918 11.918-11.918 6.5819 0 11.918 5.3357 11.918 11.918z"/>
        <path id="path4356" transform="matrix(.37212 0 0 .37212 1666.1 425.1)" d="m1944.9 401.67c0 6.5819-5.3356 11.918-11.918 11.918-6.5819 0-11.918-5.3357-11.918-11.918 0-6.5819 5.3356-11.918 11.918-11.918 6.5819 0 11.918 5.3357 11.918 11.918z"/>
        <path id="path4358" transform="matrix(.19351 0 0 .19351 2286.8 335.18)" d="m1944.9 401.67c0 6.5819-5.3356 11.918-11.918 11.918-6.5819 0-11.918-5.3357-11.918-11.918 0-6.5819 5.3356-11.918 11.918-11.918 6.5819 0 11.918 5.3357 11.918 11.918z"/>
        <path id="path4360" transform="matrix(.37995 0 0 .37995 2149.4 -103.57)" d="m1944.9 401.67c0 6.5819-5.3356 11.918-11.918 11.918-6.5819 0-11.918-5.3357-11.918-11.918 0-6.5819 5.3356-11.918 11.918-11.918 6.5819 0 11.918 5.3357 11.918 11.918z"/>
        <path id="path4362" transform="matrix(.16665 0 0 .16665 2318.7 149.41)" d="m1944.9 401.67c0 6.5819-5.3356 11.918-11.918 11.918-6.5819 0-11.918-5.3357-11.918-11.918 0-6.5819 5.3356-11.918 11.918-11.918 6.5819 0 11.918 5.3357 11.918 11.918z"/>
        <path id="path4364" transform="matrix(.23856 0 0 .23856 2327.4 2.7102)" d="m1944.9 401.67c0 6.5819-5.3356 11.918-11.918 11.918-6.5819 0-11.918-5.3357-11.918-11.918 0-6.5819 5.3356-11.918 11.918-11.918 6.5819 0 11.918 5.3357 11.918 11.918z"/>
        <path id="path4366" transform="matrix(.26354 0 0 .26354 2148 44.571)" d="m1944.9 401.67c0 6.5819-5.3356 11.918-11.918 11.918-6.5819 0-11.918-5.3357-11.918-11.918 0-6.5819 5.3356-11.918 11.918-11.918 6.5819 0 11.918 5.3357 11.918 11.918z"/>
        <path id="path4368" transform="matrix(.31217 0 0 .31217 2114.4 -33.592)" d="m1944.9 401.67c0 6.5819-5.3356 11.918-11.918 11.918-6.5819 0-11.918-5.3357-11.918-11.918 0-6.5819 5.3356-11.918 11.918-11.918 6.5819 0 11.918 5.3357 11.918 11.918z"/>
        <path id="path4370" transform="matrix(.26698 0 0 .26698 1974.9 -175.63)" d="m1944.9 401.67c0 6.5819-5.3356 11.918-11.918 11.918-6.5819 0-11.918-5.3357-11.918-11.918 0-6.5819 5.3356-11.918 11.918-11.918 6.5819 0 11.918 5.3357 11.918 11.918z"/>
        <path id="path4372" transform="matrix(.34009 0 0 .34009 1856.8 112.16)" d="m1944.9 401.67c0 6.5819-5.3356 11.918-11.918 11.918-6.5819 0-11.918-5.3357-11.918-11.918 0-6.5819 5.3356-11.918 11.918-11.918 6.5819 0 11.918 5.3357 11.918 11.918z"/>
        <path id="path4374" transform="matrix(.33010 0 0 .33010 1784.8 -159.32)" d="m1944.9 401.67c0 6.5819-5.3356 11.918-11.918 11.918-6.5819 0-11.918-5.3357-11.918-11.918 0-6.5819 5.3356-11.918 11.918-11.918 6.5819 0 11.918 5.3357 11.918 11.918z"/>
        <path id="path4376" transform="matrix(.18812 0 0 .18812 2297.8 122.38)" d="m1944.9 401.67c0 6.5819-5.3356 11.918-11.918 11.918-6.5819 0-11.918-5.3357-11.918-11.918 0-6.5819 5.3356-11.918 11.918-11.918 6.5819 0 11.918 5.3357 11.918 11.918z"/>
        <path id="path4378" transform="matrix(.34104 0 0 .34104 1992.8 177.47)" d="m1944.9 401.67c0 6.5819-5.3356 11.918-11.918 11.918-6.5819 0-11.918-5.3357-11.918-11.918 0-6.5819 5.3356-11.918 11.918-11.918 6.5819 0 11.918 5.3357 11.918 11.918z"/>
        <path id="path4380" transform="matrix(.26375 0 0 .26375 2038.1 492.53)" d="m1944.9 401.67c0 6.5819-5.3356 11.918-11.918 11.918-6.5819 0-11.918-5.3357-11.918-11.918 0-6.5819 5.3356-11.918 11.918-11.918 6.5819 0 11.918 5.3357 11.918 11.918z"/>
        <path id="path4382" transform="matrix(.32585 0 0 .32585 1931.3 226.62)" d="m1944.9 401.67c0 6.5819-5.3356 11.918-11.918 11.918-6.5819 0-11.918-5.3357-11.918-11.918 0-6.5819 5.3356-11.918 11.918-11.918 6.5819 0 11.918 5.3357 11.918 11.918z"/>
        <path id="path4384" transform="matrix(.13967 0 0 .13967 1949 295.5)" d="m1944.9 401.67c0 6.5819-5.3356 11.918-11.918 11.918-6.5819 0-11.918-5.3357-11.918-11.918 0-6.5819 5.3356-11.918 11.918-11.918 6.5819 0 11.918 5.3357 11.918 11.918z"/>
        <path id="path4386" transform="matrix(.27723 0 0 .27723 1865 297.33)" d="m1944.9 401.67c0 6.5819-5.3356 11.918-11.918 11.918-6.5819 0-11.918-5.3357-11.918-11.918 0-6.5819 5.3356-11.918 11.918-11.918 6.5819 0 11.918 5.3357 11.918 11.918z"/>
        <path id="path4388" transform="matrix(.28302 0 0 .28302 1912.5 396.86)" d="m1944.9 401.67c0 6.5819-5.3356 11.918-11.918 11.918-6.5819 0-11.918-5.3357-11.918-11.918 0-6.5819 5.3356-11.918 11.918-11.918 6.5819 0 11.918 5.3357 11.918 11.918z"/>
        <path id="path4390" transform="matrix(.20247 0 0 .20247 1936.2 65.72)" d="m1944.9 401.67c0 6.5819-5.3356 11.918-11.918 11.918-6.5819 0-11.918-5.3357-11.918-11.918 0-6.5819 5.3356-11.918 11.918-11.918 6.5819 0 11.918 5.3357 11.918 11.918z"/>
        <path id="path4392" transform="matrix(.14486 0 0 .14486 2020.1 325.4)" d="m1944.9 401.67c0 6.5819-5.3356 11.918-11.918 11.918-6.5819 0-11.918-5.3357-11.918-11.918 0-6.5819 5.3356-11.918 11.918-11.918 6.5819 0 11.918 5.3357 11.918 11.918z"/>
        <path id="path4394" transform="matrix(.23824 0 0 .23824 1905.9 293.36)" d="m1944.9 401.67c0 6.5819-5.3356 11.918-11.918 11.918-6.5819 0-11.918-5.3357-11.918-11.918 0-6.5819 5.3356-11.918 11.918-11.918 6.5819 0 11.918 5.3357 11.918 11.918z"/>
        <path id="path4396" transform="matrix(.35256 0 0 .35256 1606.5 94.137)" d="m1944.9 401.67c0 6.5819-5.3356 11.918-11.918 11.918-6.5819 0-11.918-5.3357-11.918-11.918 0-6.5819 5.3356-11.918 11.918-11.918 6.5819 0 11.918 5.3357 11.918 11.918z"/>
        <path id="path4398" transform="matrix(.32062 0 0 .32062 1627.9 8.2286)" d="m1944.9 401.67c0 6.5819-5.3356 11.918-11.918 11.918-6.5819 0-11.918-5.3357-11.918-11.918 0-6.5819 5.3356-11.918 11.918-11.918 6.5819 0 11.918 5.3357 11.918 11.918z"/>
        <path id="path4400" transform="matrix(.32511 0 0 .32511 1443.1 253.82)" d="m1944.9 401.67c0 6.5819-5.3356 11.918-11.918 11.918-6.5819 0-11.918-5.3357-11.918-11.918 0-6.5819 5.3356-11.918 11.918-11.918 6.5819 0 11.918 5.3357 11.918 11.918z"/>
        <path id="path4402" transform="matrix(.22921 0 0 .22921 1706.7 404.86)" d="m1944.9 401.67c0 6.5819-5.3356 11.918-11.918 11.918-6.5819 0-11.918-5.3357-11.918-11.918 0-6.5819 5.3356-11.918 11.918-11.918 6.5819 0 11.918 5.3357 11.918 11.918z"/>
        <path id="path4404" transform="matrix(.19513 0 0 .19513 1696.2 316.56)" d="m1944.9 401.67c0 6.5819-5.3356 11.918-11.918 11.918-6.5819 0-11.918-5.3357-11.918-11.918 0-6.5819 5.3356-11.918 11.918-11.918 6.5819 0 11.918 5.3357 11.918 11.918z"/>
        <path id="path4406" transform="matrix(.25506 0 0 .25506 1872.7 214.65)" d="m1944.9 401.67c0 6.5819-5.3356 11.918-11.918 11.918-6.5819 0-11.918-5.3357-11.918-11.918 0-6.5819 5.3356-11.918 11.918-11.918 6.5819 0 11.918 5.3357 11.918 11.918z"/>
        <path id="path4408" transform="matrix(.37113 0 0 .37113 1472.8 113.71)" d="m1944.9 401.67c0 6.5819-5.3356 11.918-11.918 11.918-6.5819 0-11.918-5.3357-11.918-11.918 0-6.5819 5.3356-11.918 11.918-11.918 6.5819 0 11.918 5.3357 11.918 11.918z"/>
        <path id="path4410" transform="matrix(.26832 0 0 .26832 1526.1 -74.19)" d="m1944.9 401.67c0 6.5819-5.3356 11.918-11.918 11.918-6.5819 0-11.918-5.3357-11.918-11.918 0-6.5819 5.3356-11.918 11.918-11.918 6.5819 0 11.918 5.3357 11.918 11.918z"/>
        <path id="path4412" transform="matrix(.22791 0 0 .22791 1568.8 14.481)" d="m1944.9 401.67c0 6.5819-5.3356 11.918-11.918 11.918-6.5819 0-11.918-5.3357-11.918-11.918 0-6.5819 5.3356-11.918 11.918-11.918 6.5819 0 11.918 5.3357 11.918 11.918z"/>
        <path id="path4414" transform="matrix(.35371 0 0 .35371 1472.8 26.726)" d="m1944.9 401.67c0 6.5819-5.3356 11.918-11.918 11.918-6.5819 0-11.918-5.3357-11.918-11.918 0-6.5819 5.3356-11.918 11.918-11.918 6.5819 0 11.918 5.3357 11.918 11.918z"/>
        <path id="path4416" transform="matrix(.23428 0 0 .23428 1478.7 37.743)" d="m1944.9 401.67c0 6.5819-5.3356 11.918-11.918 11.918-6.5819 0-11.918-5.3357-11.918-11.918 0-6.5819 5.3356-11.918 11.918-11.918 6.5819 0 11.918 5.3357 11.918 11.918z"/>
        <path id="path4418" transform="matrix(.29992 0 0 .29992 1375.7 57.047)" d="m1944.9 401.67c0 6.5819-5.3356 11.918-11.918 11.918-6.5819 0-11.918-5.3357-11.918-11.918 0-6.5819 5.3356-11.918 11.918-11.918 6.5819 0 11.918 5.3357 11.918 11.918z"/>
        <path id="path4420" transform="matrix(.23252 0 0 .23252 1570.5 122.98)" d="m1944.9 401.67c0 6.5819-5.3356 11.918-11.918 11.918-6.5819 0-11.918-5.3357-11.918-11.918 0-6.5819 5.3356-11.918 11.918-11.918 6.5819 0 11.918 5.3357 11.918 11.918z"/>
        <path id="path4422" transform="matrix(.17382 0 0 .17382 1566.5 73.493)" d="m1944.9 401.67c0 6.5819-5.3356 11.918-11.918 11.918-6.5819 0-11.918-5.3357-11.918-11.918 0-6.5819 5.3356-11.918 11.918-11.918 6.5819 0 11.918 5.3357 11.918 11.918z"/>
        <path id="path4424" transform="matrix(.16526 0 0 .16526 1709.8 337.22)" d="m1944.9 401.67c0 6.5819-5.3356 11.918-11.918 11.918-6.5819 0-11.918-5.3357-11.918-11.918 0-6.5819 5.3356-11.918 11.918-11.918 6.5819 0 11.918 5.3357 11.918 11.918z"/>
        <path id="path4426" transform="matrix(.26437 0 0 .26437 1566 518.02)" d="m1944.9 401.67c0 6.5819-5.3356 11.918-11.918 11.918-6.5819 0-11.918-5.3357-11.918-11.918 0-6.5819 5.3356-11.918 11.918-11.918 6.5819 0 11.918 5.3357 11.918 11.918z"/>
        <path id="path4428" transform="matrix(.17032 0 0 .17032 1550.6 473.05)" d="m1944.9 401.67c0 6.5819-5.3356 11.918-11.918 11.918-6.5819 0-11.918-5.3357-11.918-11.918 0-6.5819 5.3356-11.918 11.918-11.918 6.5819 0 11.918 5.3357 11.918 11.918z"/>
        <path id="path4430" transform="matrix(.20915 0 0 .20915 1548.9 391.5)" d="m1944.9 401.67c0 6.5819-5.3356 11.918-11.918 11.918-6.5819 0-11.918-5.3357-11.918-11.918 0-6.5819 5.3356-11.918 11.918-11.918 6.5819 0 11.918 5.3357 11.918 11.918z"/>
        <path id="path4432" transform="matrix(.25925 0 0 .25925 1380.2 659.94)" d="m1944.9 401.67c0 6.5819-5.3356 11.918-11.918 11.918-6.5819 0-11.918-5.3357-11.918-11.918 0-6.5819 5.3356-11.918 11.918-11.918 6.5819 0 11.918 5.3357 11.918 11.918z"/>
        <path id="path4434" transform="matrix(.17653 0 0 .17653 1712.2 944.26)" d="m1944.9 401.67c0 6.5819-5.3356 11.918-11.918 11.918-6.5819 0-11.918-5.3357-11.918-11.918 0-6.5819 5.3356-11.918 11.918-11.918 6.5819 0 11.918 5.3357 11.918 11.918z"/>
        <path id="path4436" transform="matrix(.35638 0 0 .35638 1423 646.65)" d="m1944.9 401.67c0 6.5819-5.3356 11.918-11.918 11.918-6.5819 0-11.918-5.3357-11.918-11.918 0-6.5819 5.3356-11.918 11.918-11.918 6.5819 0 11.918 5.3357 11.918 11.918z"/>
        <path id="path4438" transform="matrix(.34367 0 0 .34367 1338.9 834.71)" d="m1944.9 401.67c0 6.5819-5.3356 11.918-11.918 11.918-6.5819 0-11.918-5.3357-11.918-11.918 0-6.5819 5.3356-11.918 11.918-11.918 6.5819 0 11.918 5.3357 11.918 11.918z"/>
        <path id="path4440" transform="matrix(.33465 0 0 .33465 1426.6 1023.3)" d="m1944.9 401.67c0 6.5819-5.3356 11.918-11.918 11.918-6.5819 0-11.918-5.3357-11.918-11.918 0-6.5819 5.3356-11.918 11.918-11.918 6.5819 0 11.918 5.3357 11.918 11.918z"/>
        <path id="path4442" transform="matrix(.36003 0 0 .36003 1448.3 722.23)" d="m1944.9 401.67c0 6.5819-5.3356 11.918-11.918 11.918-6.5819 0-11.918-5.3357-11.918-11.918 0-6.5819 5.3356-11.918 11.918-11.918 6.5819 0 11.918 5.3357 11.918 11.918z"/>
        <path id="path4444" transform="matrix(.27552 0 0 .27552 1773.3 967.71)" d="m1944.9 401.67c0 6.5819-5.3356 11.918-11.918 11.918-6.5819 0-11.918-5.3357-11.918-11.918 0-6.5819 5.3356-11.918 11.918-11.918 6.5819 0 11.918 5.3357 11.918 11.918z"/>
        <path id="path4446" transform="matrix(.28073 0 0 .28073 1603.2 858.48)" d="m1944.9 401.67c0 6.5819-5.3356 11.918-11.918 11.918-6.5819 0-11.918-5.3357-11.918-11.918 0-6.5819 5.3356-11.918 11.918-11.918 6.5819 0 11.918 5.3357 11.918 11.918z"/>
        <path id="path4448" transform="matrix(.35502 0 0 .35502 1612.1 513.37)" d="m1944.9 401.67c0 6.5819-5.3356 11.918-11.918 11.918-6.5819 0-11.918-5.3357-11.918-11.918 0-6.5819 5.3356-11.918 11.918-11.918 6.5819 0 11.918 5.3357 11.918 11.918z"/>
        <path id="path4450" transform="matrix(.33209 0 0 .33209 1587.7 504.41)" d="m1944.9 401.67c0 6.5819-5.3356 11.918-11.918 11.918-6.5819 0-11.918-5.3357-11.918-11.918 0-6.5819 5.3356-11.918 11.918-11.918 6.5819 0 11.918 5.3357 11.918 11.918z"/>
        <path id="path4452" transform="matrix(.23827 0 0 .23827 1626.2 567.32)" d="m1944.9 401.67c0 6.5819-5.3356 11.918-11.918 11.918-6.5819 0-11.918-5.3357-11.918-11.918 0-6.5819 5.3356-11.918 11.918-11.918 6.5819 0 11.918 5.3357 11.918 11.918z"/>
        <path id="path4454" transform="matrix(.26676 0 0 .26676 1436.5 650.9)" d="m1944.9 401.67c0 6.5819-5.3356 11.918-11.918 11.918-6.5819 0-11.918-5.3357-11.918-11.918 0-6.5819 5.3356-11.918 11.918-11.918 6.5819 0 11.918 5.3357 11.918 11.918z"/>
        <path id="path4456" transform="matrix(.35809 0 0 .35809 1342.8 744.79)" d="m1944.9 401.67c0 6.5819-5.3356 11.918-11.918 11.918-6.5819 0-11.918-5.3357-11.918-11.918 0-6.5819 5.3356-11.918 11.918-11.918 6.5819 0 11.918 5.3357 11.918 11.918z"/>
        <path id="path4458" transform="matrix(.34817 0 0 .34817 1454.4 879.45)" d="m1944.9 401.67c0 6.5819-5.3356 11.918-11.918 11.918-6.5819 0-11.918-5.3357-11.918-11.918 0-6.5819 5.3356-11.918 11.918-11.918 6.5819 0 11.918 5.3357 11.918 11.918z"/>
        <path id="path4460" transform="matrix(.34189 0 0 .34189 1647.4 799.03)" d="m1944.9 401.67c0 6.5819-5.3356 11.918-11.918 11.918-6.5819 0-11.918-5.3357-11.918-11.918 0-6.5819 5.3356-11.918 11.918-11.918 6.5819 0 11.918 5.3357 11.918 11.918z"/>
        <path id="path4462" transform="matrix(.25821 0 0 .25821 1993.2 674.76)" d="m1944.9 401.67c0 6.5819-5.3356 11.918-11.918 11.918-6.5819 0-11.918-5.3357-11.918-11.918 0-6.5819 5.3356-11.918 11.918-11.918 6.5819 0 11.918 5.3357 11.918 11.918z"/>
        <path id="path4464" transform="matrix(.27234 0 0 .27234 2227 880.19)" d="m1944.9 401.67c0 6.5819-5.3356 11.918-11.918 11.918-6.5819 0-11.918-5.3357-11.918-11.918 0-6.5819 5.3356-11.918 11.918-11.918 6.5819 0 11.918 5.3357 11.918 11.918z"/>
        <path id="path4466" transform="matrix(.366 0 0 .366 1509.2 779.97)" d="m1944.9 401.67c0 6.5819-5.3356 11.918-11.918 11.918-6.5819 0-11.918-5.3357-11.918-11.918 0-6.5819 5.3356-11.918 11.918-11.918 6.5819 0 11.918 5.3357 11.918 11.918z"/>
        <path id="path4468" transform="matrix(.35320 0 0 .35320 1512 512.41)" d="m1944.9 401.67c0 6.5819-5.3356 11.918-11.918 11.918-6.5819 0-11.918-5.3357-11.918-11.918 0-6.5819 5.3356-11.918 11.918-11.918 6.5819 0 11.918 5.3357 11.918 11.918z"/>
        <path id="path4470" transform="matrix(.26841 0 0 .26841 1915.8 725.72)" d="m1944.9 401.67c0 6.5819-5.3356 11.918-11.918 11.918-6.5819 0-11.918-5.3357-11.918-11.918 0-6.5819 5.3356-11.918 11.918-11.918 6.5819 0 11.918 5.3357 11.918 11.918z"/>
        <path id="path4472" transform="matrix(.33993 0 0 .33993 1825 1023.9)" d="m1944.9 401.67c0 6.5819-5.3356 11.918-11.918 11.918-6.5819 0-11.918-5.3357-11.918-11.918 0-6.5819 5.3356-11.918 11.918-11.918 6.5819 0 11.918 5.3357 11.918 11.918z"/>
        <path id="path4474" transform="matrix(.34789 0 0 .34789 1755.8 1010.2)" d="m1944.9 401.67c0 6.5819-5.3356 11.918-11.918 11.918-6.5819 0-11.918-5.3357-11.918-11.918 0-6.5819 5.3356-11.918 11.918-11.918 6.5819 0 11.918 5.3357 11.918 11.918z"/>
        <path id="path4476" transform="matrix(.29077 0 0 .29077 1981.6 787.17)" d="m1944.9 401.67c0 6.5819-5.3356 11.918-11.918 11.918-6.5819 0-11.918-5.3357-11.918-11.918 0-6.5819 5.3356-11.918 11.918-11.918 6.5819 0 11.918 5.3357 11.918 11.918z"/>
        <path id="path4478" transform="matrix(.26282 0 0 .26282 2078.5 999.16)" d="m1944.9 401.67c0 6.5819-5.3356 11.918-11.918 11.918-6.5819 0-11.918-5.3357-11.918-11.918 0-6.5819 5.3356-11.918 11.918-11.918 6.5819 0 11.918 5.3357 11.918 11.918z"/>
        <path id="path4480" transform="matrix(.36514 0 0 .36514 2178 869.81)" d="m1944.9 401.67c0 6.5819-5.3356 11.918-11.918 11.918-6.5819 0-11.918-5.3357-11.918-11.918 0-6.5819 5.3356-11.918 11.918-11.918 6.5819 0 11.918 5.3357 11.918 11.918z"/>
        <path id="path4482" transform="matrix(.15089 0 0 .15089 2578.5 980.4)" d="m1944.9 401.67c0 6.5819-5.3356 11.918-11.918 11.918-6.5819 0-11.918-5.3357-11.918-11.918 0-6.5819 5.3356-11.918 11.918-11.918 6.5819 0 11.918 5.3357 11.918 11.918z"/>
        <path id="path4484" transform="matrix(.36164 0 0 .36164 2375.8 760.2)" d="m1944.9 401.67c0 6.5819-5.3356 11.918-11.918 11.918-6.5819 0-11.918-5.3357-11.918-11.918 0-6.5819 5.3356-11.918 11.918-11.918 6.5819 0 11.918 5.3357 11.918 11.918z"/>
        <path id="path4486" transform="matrix(.16981 0 0 .16981 2545 513.65)" d="m1944.9 401.67c0 6.5819-5.3356 11.918-11.918 11.918-6.5819 0-11.918-5.3357-11.918-11.918 0-6.5819 5.3356-11.918 11.918-11.918 6.5819 0 11.918 5.3357 11.918 11.918z"/>
        <path id="path4488" transform="matrix(.33307 0 0 .33307 1726.3 680.63)" d="m1944.9 401.67c0 6.5819-5.3356 11.918-11.918 11.918-6.5819 0-11.918-5.3357-11.918-11.918 0-6.5819 5.3356-11.918 11.918-11.918 6.5819 0 11.918 5.3357 11.918 11.918z"/>
        <path id="path4490" transform="matrix(.13613 0 0 .13613 2264.9 770.25)" d="m1944.9 401.67c0 6.5819-5.3356 11.918-11.918 11.918-6.5819 0-11.918-5.3357-11.918-11.918 0-6.5819 5.3356-11.918 11.918-11.918 6.5819 0 11.918 5.3357 11.918 11.918z"/>
        <path id="path4492" transform="matrix(.34440 0 0 .34440 2246.3 667.19)" d="m1944.9 401.67c0 6.5819-5.3356 11.918-11.918 11.918-6.5819 0-11.918-5.3357-11.918-11.918 0-6.5819 5.3356-11.918 11.918-11.918 6.5819 0 11.918 5.3357 11.918 11.918z"/>
        <path id="path4494" transform="matrix(.37457 0 0 .37457 2128 1056.8)" d="m1944.9 401.67c0 6.5819-5.3356 11.918-11.918 11.918-6.5819 0-11.918-5.3357-11.918-11.918 0-6.5819 5.3356-11.918 11.918-11.918 6.5819 0 11.918 5.3357 11.918 11.918z"/>
        <path id="path4496" transform="matrix(.31295 0 0 .31295 2044.9 727.21)" d="m1944.9 401.67c0 6.5819-5.3356 11.918-11.918 11.918-6.5819 0-11.918-5.3357-11.918-11.918 0-6.5819 5.3356-11.918 11.918-11.918 6.5819 0 11.918 5.3357 11.918 11.918z"/>
        <path id="path4498" transform="matrix(.17243 0 0 .17243 2527.5 768.83)" d="m1944.9 401.67c0 6.5819-5.3356 11.918-11.918 11.918-6.5819 0-11.918-5.3357-11.918-11.918 0-6.5819 5.3356-11.918 11.918-11.918 6.5819 0 11.918 5.3357 11.918 11.918z"/>
        <path id="path4500" transform="matrix(.24085 0 0 .24085 2714 630.3)" d="m1944.9 401.67c0 6.5819-5.3356 11.918-11.918 11.918-6.5819 0-11.918-5.3357-11.918-11.918 0-6.5819 5.3356-11.918 11.918-11.918 6.5819 0 11.918 5.3357 11.918 11.918z"/>
        <path id="path4502" transform="matrix(.33162 0 0 .33162 2388.8 617.23)" d="m1944.9 401.67c0 6.5819-5.3356 11.918-11.918 11.918-6.5819 0-11.918-5.3357-11.918-11.918 0-6.5819 5.3356-11.918 11.918-11.918 6.5819 0 11.918 5.3357 11.918 11.918z"/>
        <path id="path4504" transform="matrix(.14665 0 0 .14665 3008.6 593.08)" d="m1944.9 401.67c0 6.5819-5.3356 11.918-11.918 11.918-6.5819 0-11.918-5.3357-11.918-11.918 0-6.5819 5.3356-11.918 11.918-11.918 6.5819 0 11.918 5.3357 11.918 11.918z"/>
        <path id="path4506" transform="matrix(.25704 0 0 .25704 2938 603.44)" d="m1944.9 401.67c0 6.5819-5.3356 11.918-11.918 11.918-6.5819 0-11.918-5.3357-11.918-11.918 0-6.5819 5.3356-11.918 11.918-11.918 6.5819 0 11.918 5.3357 11.918 11.918z"/>
        <path id="path4508" transform="matrix(.14406 0 0 .14406 2938.8 747.75)" d="m1944.9 401.67c0 6.5819-5.3356 11.918-11.918 11.918-6.5819 0-11.918-5.3357-11.918-11.918 0-6.5819 5.3356-11.918 11.918-11.918 6.5819 0 11.918 5.3357 11.918 11.918z"/>
        <path id="path4514" transform="matrix(.37174 0 0 .37174 2871.7 666.78)" d="m1944.9 401.67c0 6.5819-5.3356 11.918-11.918 11.918-6.5819 0-11.918-5.3357-11.918-11.918 0-6.5819 5.3356-11.918 11.918-11.918 6.5819 0 11.918 5.3357 11.918 11.918z"/>
        <path id="path4516" transform="matrix(.34354 0 0 .34354 2831.6 1120.2)" d="m1944.9 401.67c0 6.5819-5.3356 11.918-11.918 11.918-6.5819 0-11.918-5.3357-11.918-11.918 0-6.5819 5.3356-11.918 11.918-11.918 6.5819 0 11.918 5.3357 11.918 11.918z"/>
        <path id="path4518" transform="matrix(.19347 0 0 .19347 3136.1 1146.5)" d="m1944.9 401.67c0 6.5819-5.3356 11.918-11.918 11.918-6.5819 0-11.918-5.3357-11.918-11.918 0-6.5819 5.3356-11.918 11.918-11.918 6.5819 0 11.918 5.3357 11.918 11.918z"/>
        <path id="path4520" transform="matrix(.24316 0 0 .24316 2800.7 923.35)" d="m1944.9 401.67c0 6.5819-5.3356 11.918-11.918 11.918-6.5819 0-11.918-5.3357-11.918-11.918 0-6.5819 5.3356-11.918 11.918-11.918 6.5819 0 11.918 5.3357 11.918 11.918z"/>
        <path id="path4522" transform="matrix(.15810 0 0 .15810 2896.7 983)" d="m1944.9 401.67c0 6.5819-5.3356 11.918-11.918 11.918-6.5819 0-11.918-5.3357-11.918-11.918 0-6.5819 5.3356-11.918 11.918-11.918 6.5819 0 11.918 5.3357 11.918 11.918z"/>
        <path id="path4524" transform="matrix(.14053 0 0 .14053 2769.4 1035.7)" d="m1944.9 401.67c0 6.5819-5.3356 11.918-11.918 11.918-6.5819 0-11.918-5.3357-11.918-11.918 0-6.5819 5.3356-11.918 11.918-11.918 6.5819 0 11.918 5.3357 11.918 11.918z"/>
        <path id="path4526" transform="matrix(.25582 0 0 .25582 2813.4 1111.2)" d="m1944.9 401.67c0 6.5819-5.3356 11.918-11.918 11.918-6.5819 0-11.918-5.3357-11.918-11.918 0-6.5819 5.3356-11.918 11.918-11.918 6.5819 0 11.918 5.3357 11.918 11.918z"/>
        <path id="path4528" transform="matrix(.27571 0 0 .27571 2645.8 843.03)" d="m1944.9 401.67c0 6.5819-5.3356 11.918-11.918 11.918-6.5819 0-11.918-5.3357-11.918-11.918 0-6.5819 5.3356-11.918 11.918-11.918 6.5819 0 11.918 5.3357 11.918 11.918z"/>
        <path id="path4530" transform="matrix(.37743 0 0 .37743 2465 900.83)" d="m1944.9 401.67c0 6.5819-5.3356 11.918-11.918 11.918-6.5819 0-11.918-5.3357-11.918-11.918 0-6.5819 5.3356-11.918 11.918-11.918 6.5819 0 11.918 5.3357 11.918 11.918z"/>
        <path id="path4532" transform="matrix(.19344 0 0 .19344 2844.8 746.11)" d="m1944.9 401.67c0 6.5819-5.3356 11.918-11.918 11.918-6.5819 0-11.918-5.3357-11.918-11.918 0-6.5819 5.3356-11.918 11.918-11.918 6.5819 0 11.918 5.3357 11.918 11.918z"/>
        <path id="path4534" transform="matrix(.27454 0 0 .27454 2765.4 589.27)" d="m1944.9 401.67c0 6.5819-5.3356 11.918-11.918 11.918-6.5819 0-11.918-5.3357-11.918-11.918 0-6.5819 5.3356-11.918 11.918-11.918 6.5819 0 11.918 5.3357 11.918 11.918z"/>
        <path id="path4536" transform="matrix(.25450 0 0 .25450 2913 826.06)" d="m1944.9 401.67c0 6.5819-5.3356 11.918-11.918 11.918-6.5819 0-11.918-5.3357-11.918-11.918 0-6.5819 5.3356-11.918 11.918-11.918 6.5819 0 11.918 5.3357 11.918 11.918z"/>
        <path id="path4540" transform="matrix(.31242 0 0 .31242 2923.1 916.04)" d="m1944.9 401.67c0 6.5819-5.3356 11.918-11.918 11.918-6.5819 0-11.918-5.3357-11.918-11.918 0-6.5819 5.3356-11.918 11.918-11.918 6.5819 0 11.918 5.3357 11.918 11.918z"/>
        <path id="path4542" transform="matrix(.25879 0 0 .25879 2999.6 780.4)" d="m1944.9 401.67c0 6.5819-5.3356 11.918-11.918 11.918-6.5819 0-11.918-5.3357-11.918-11.918 0-6.5819 5.3356-11.918 11.918-11.918 6.5819 0 11.918 5.3357 11.918 11.918z"/>
        <path id="path4544" transform="matrix(.31955 0 0 .31955 2725.7 1195.3)" d="m1944.9 401.67c0 6.5819-5.3356 11.918-11.918 11.918-6.5819 0-11.918-5.3357-11.918-11.918 0-6.5819 5.3356-11.918 11.918-11.918 6.5819 0 11.918 5.3357 11.918 11.918z"/>
        <path id="path4546" transform="matrix(.33133 0 0 .33133 2729.4 969.4)" d="m1944.9 401.67c0 6.5819-5.3356 11.918-11.918 11.918-6.5819 0-11.918-5.3357-11.918-11.918 0-6.5819 5.3356-11.918 11.918-11.918 6.5819 0 11.918 5.3357 11.918 11.918z"/>
        <path id="path4548" transform="matrix(.15790 0 0 .15790 3138.8 1048.6)" d="m1944.9 401.67c0 6.5819-5.3356 11.918-11.918 11.918-6.5819 0-11.918-5.3357-11.918-11.918 0-6.5819 5.3356-11.918 11.918-11.918 6.5819 0 11.918 5.3357 11.918 11.918z"/>
        <path id="path4550" transform="matrix(.25313 0 0 .25313 2818.2 903.75)" d="m1944.9 401.67c0 6.5819-5.3356 11.918-11.918 11.918-6.5819 0-11.918-5.3357-11.918-11.918 0-6.5819 5.3356-11.918 11.918-11.918 6.5819 0 11.918 5.3357 11.918 11.918z"/>
        <path id="path4552" transform="matrix(.37254 0 0 .37254 2740.6 806.33)" d="m1944.9 401.67c0 6.5819-5.3356 11.918-11.918 11.918-6.5819 0-11.918-5.3357-11.918-11.918 0-6.5819 5.3356-11.918 11.918-11.918 6.5819 0 11.918 5.3357 11.918 11.918z"/>
        <path id="path4554" transform="matrix(.22452 0 0 .22452 2835.7 670.19)" d="m1944.9 401.67c0 6.5819-5.3356 11.918-11.918 11.918-6.5819 0-11.918-5.3357-11.918-11.918 0-6.5819 5.3356-11.918 11.918-11.918 6.5819 0 11.918 5.3357 11.918 11.918z"/>
        <path id="path4556" transform="matrix(.30725 0 0 .30725 2846.5 701.78)" d="m1944.9 401.67c0 6.5819-5.3356 11.918-11.918 11.918-6.5819 0-11.918-5.3357-11.918-11.918 0-6.5819 5.3356-11.918 11.918-11.918 6.5819 0 11.918 5.3357 11.918 11.918z"/>
        <path id="path4558" transform="matrix(.14132 0 0 .14132 2968.6 830.02)" d="m1944.9 401.67c0 6.5819-5.3356 11.918-11.918 11.918-6.5819 0-11.918-5.3357-11.918-11.918 0-6.5819 5.3356-11.918 11.918-11.918 6.5819 0 11.918 5.3357 11.918 11.918z"/>
        <path id="path4560" transform="matrix(.14414 0 0 .14414 2621.8 756.36)" d="m1944.9 401.67c0 6.5819-5.3356 11.918-11.918 11.918-6.5819 0-11.918-5.3357-11.918-11.918 0-6.5819 5.3356-11.918 11.918-11.918 6.5819 0 11.918 5.3357 11.918 11.918z"/>
        <path id="path4562" transform="matrix(.30044 0 0 .30044 2406.9 848.85)" d="m1944.9 401.67c0 6.5819-5.3356 11.918-11.918 11.918-6.5819 0-11.918-5.3357-11.918-11.918 0-6.5819 5.3356-11.918 11.918-11.918 6.5819 0 11.918 5.3357 11.918 11.918z"/>
        <path id="path4564" transform="matrix(.32790 0 0 .32790 2144.6 1038.5)" d="m1944.9 401.67c0 6.5819-5.3356 11.918-11.918 11.918-6.5819 0-11.918-5.3357-11.918-11.918 0-6.5819 5.3356-11.918 11.918-11.918 6.5819 0 11.918 5.3357 11.918 11.918z"/>
        <path id="path4566" transform="matrix(.37020 0 0 .37020 2060 920.46)" d="m1944.9 401.67c0 6.5819-5.3356 11.918-11.918 11.918-6.5819 0-11.918-5.3357-11.918-11.918 0-6.5819 5.3356-11.918 11.918-11.918 6.5819 0 11.918 5.3357 11.918 11.918z"/>
        <path id="path4568" transform="matrix(.29666 0 0 .29666 2395.3 1021.6)" d="m1944.9 401.67c0 6.5819-5.3356 11.918-11.918 11.918-6.5819 0-11.918-5.3357-11.918-11.918 0-6.5819 5.3356-11.918 11.918-11.918 6.5819 0 11.918 5.3357 11.918 11.918z"/>
        <path id="path4570" transform="matrix(.20954 0 0 .20954 2247.6 1158)" d="m1944.9 401.67c0 6.5819-5.3356 11.918-11.918 11.918-6.5819 0-11.918-5.3357-11.918-11.918 0-6.5819 5.3356-11.918 11.918-11.918 6.5819 0 11.918 5.3357 11.918 11.918z"/>
        <path id="path4572" transform="matrix(.13853 0 0 .13853 2585.8 917.43)" d="m1944.9 401.67c0 6.5819-5.3356 11.918-11.918 11.918-6.5819 0-11.918-5.3357-11.918-11.918 0-6.5819 5.3356-11.918 11.918-11.918 6.5819 0 11.918 5.3357 11.918 11.918z"/>
        <path id="path4574" transform="matrix(.24792 0 0 .24792 2133.6 1062.2)" d="m1944.9 401.67c0 6.5819-5.3356 11.918-11.918 11.918-6.5819 0-11.918-5.3357-11.918-11.918 0-6.5819 5.3356-11.918 11.918-11.918 6.5819 0 11.918 5.3357 11.918 11.918z"/>
        <path id="path4576" transform="matrix(.37174 0 0 .37174 1683.4 1019.5)" d="m1944.9 401.67c0 6.5819-5.3356 11.918-11.918 11.918-6.5819 0-11.918-5.3357-11.918-11.918 0-6.5819 5.3356-11.918 11.918-11.918 6.5819 0 11.918 5.3357 11.918 11.918z"/>
        <path id="path4578" transform="matrix(.29544 0 0 .29544 1706.8 771.31)" d="m1944.9 401.67c0 6.5819-5.3356 11.918-11.918 11.918-6.5819 0-11.918-5.3357-11.918-11.918 0-6.5819 5.3356-11.918 11.918-11.918 6.5819 0 11.918 5.3357 11.918 11.918z"/>
        <path id="path4580" transform="matrix(.22769 0 0 .22769 1755.2 645.78)" d="m1944.9 401.67c0 6.5819-5.3356 11.918-11.918 11.918-6.5819 0-11.918-5.3357-11.918-11.918 0-6.5819 5.3356-11.918 11.918-11.918 6.5819 0 11.918 5.3357 11.918 11.918z"/>
        <path id="path4582" transform="matrix(.16664 0 0 .16664 1724.8 688.22)" d="m1944.9 401.67c0 6.5819-5.3356 11.918-11.918 11.918-6.5819 0-11.918-5.3357-11.918-11.918 0-6.5819 5.3356-11.918 11.918-11.918 6.5819 0 11.918 5.3357 11.918 11.918z"/>
        <path id="path4584" transform="matrix(.15195 0 0 .15195 1920.6 582.65)" d="m1944.9 401.67c0 6.5819-5.3356 11.918-11.918 11.918-6.5819 0-11.918-5.3357-11.918-11.918 0-6.5819 5.3356-11.918 11.918-11.918 6.5819 0 11.918 5.3357 11.918 11.918z"/>
        <path id="path4586" transform="matrix(.31981 0 0 .31981 1227.5 506.6)" d="m1944.9 401.67c0 6.5819-5.3356 11.918-11.918 11.918-6.5819 0-11.918-5.3357-11.918-11.918 0-6.5819 5.3356-11.918 11.918-11.918 6.5819 0 11.918 5.3357 11.918 11.918z"/>
        <path id="path4588" transform="matrix(.29339 0 0 .29339 1553 996.1)" d="m1944.9 401.67c0 6.5819-5.3356 11.918-11.918 11.918-6.5819 0-11.918-5.3357-11.918-11.918 0-6.5819 5.3356-11.918 11.918-11.918 6.5819 0 11.918 5.3357 11.918 11.918z"/>
        <path id="path4590" transform="matrix(.17787 0 0 .17787 1598.6 803.81)" d="m1944.9 401.67c0 6.5819-5.3356 11.918-11.918 11.918-6.5819 0-11.918-5.3357-11.918-11.918 0-6.5819 5.3356-11.918 11.918-11.918 6.5819 0 11.918 5.3357 11.918 11.918z"/>
        <path id="path4592" transform="matrix(.25530 0 0 .25530 1288.6 514.09)" d="m1944.9 401.67c0 6.5819-5.3356 11.918-11.918 11.918-6.5819 0-11.918-5.3357-11.918-11.918 0-6.5819 5.3356-11.918 11.918-11.918 6.5819 0 11.918 5.3357 11.918 11.918z"/>
        <path id="path4596" transform="matrix(.33628 0 0 .33628 1083.1 825.72)" d="m1944.9 401.67c0 6.5819-5.3356 11.918-11.918 11.918-6.5819 0-11.918-5.3357-11.918-11.918 0-6.5819 5.3356-11.918 11.918-11.918 6.5819 0 11.918 5.3357 11.918 11.918z"/>
        <path id="path4598" transform="matrix(.38098 0 0 .38098 987.08 774.62)" d="m1944.9 401.67c0 6.5819-5.3356 11.918-11.918 11.918-6.5819 0-11.918-5.3357-11.918-11.918 0-6.5819 5.3356-11.918 11.918-11.918 6.5819 0 11.918 5.3357 11.918 11.918z"/>
        <path id="path4600" transform="matrix(.23445 0 0 .23445 1524.5 894.57)" d="m1944.9 401.67c0 6.5819-5.3356 11.918-11.918 11.918-6.5819 0-11.918-5.3357-11.918-11.918 0-6.5819 5.3356-11.918 11.918-11.918 6.5819 0 11.918 5.3357 11.918 11.918z"/>
        <path id="path4602" transform="matrix(.31390 0 0 .31390 1352.4 1076.3)" d="m1944.9 401.67c0 6.5819-5.3356 11.918-11.918 11.918-6.5819 0-11.918-5.3357-11.918-11.918 0-6.5819 5.3356-11.918 11.918-11.918 6.5819 0 11.918 5.3357 11.918 11.918z"/>
        <path id="path4604" transform="matrix(.22380 0 0 .22380 1697.1 1099)" d="m1944.9 401.67c0 6.5819-5.3356 11.918-11.918 11.918-6.5819 0-11.918-5.3357-11.918-11.918 0-6.5819 5.3356-11.918 11.918-11.918 6.5819 0 11.918 5.3357 11.918 11.918z"/>
        <path id="path4606" transform="matrix(.24483 0 0 .24483 1381.5 1078.4)" d="m1944.9 401.67c0 6.5819-5.3356 11.918-11.918 11.918-6.5819 0-11.918-5.3357-11.918-11.918 0-6.5819 5.3356-11.918 11.918-11.918 6.5819 0 11.918 5.3357 11.918 11.918z"/>
        <path id="path4608" transform="matrix(.25956 0 0 .25956 1435.1 1103.5)" d="m1944.9 401.67c0 6.5819-5.3356 11.918-11.918 11.918-6.5819 0-11.918-5.3357-11.918-11.918 0-6.5819 5.3356-11.918 11.918-11.918 6.5819 0 11.918 5.3357 11.918 11.918z"/>
        <path id="path4610" transform="matrix(.32317 0 0 .32317 1516.1 600.51)" d="m1944.9 401.67c0 6.5819-5.3356 11.918-11.918 11.918-6.5819 0-11.918-5.3357-11.918-11.918 0-6.5819 5.3356-11.918 11.918-11.918 6.5819 0 11.918 5.3357 11.918 11.918z"/>
        <path id="path4612" transform="matrix(.25989 0 0 .25989 1518.8 898.75)" d="m1944.9 401.67c0 6.5819-5.3356 11.918-11.918 11.918-6.5819 0-11.918-5.3357-11.918-11.918 0-6.5819 5.3356-11.918 11.918-11.918 6.5819 0 11.918 5.3357 11.918 11.918z"/>
        <path id="path4614" transform="matrix(.26280 0 0 .26280 1330.2 1012.5)" d="m1944.9 401.67c0 6.5819-5.3356 11.918-11.918 11.918-6.5819 0-11.918-5.3357-11.918-11.918 0-6.5819 5.3356-11.918 11.918-11.918 6.5819 0 11.918 5.3357 11.918 11.918z"/>
        <path id="path4618" transform="matrix(.35474 0 0 .35474 1320.2 853.66)" d="m1944.9 401.67c0 6.5819-5.3356 11.918-11.918 11.918-6.5819 0-11.918-5.3357-11.918-11.918 0-6.5819 5.3356-11.918 11.918-11.918 6.5819 0 11.918 5.3357 11.918 11.918z"/>
        <path id="path4620" transform="matrix(.17260 0 0 .17260 1629.1 881.89)" d="m1944.9 401.67c0 6.5819-5.3356 11.918-11.918 11.918-6.5819 0-11.918-5.3357-11.918-11.918 0-6.5819 5.3356-11.918 11.918-11.918 6.5819 0 11.918 5.3357 11.918 11.918z"/>
        <path id="path4622" transform="matrix(.35287 0 0 .35287 1242.7 707.17)" d="m1944.9 401.67c0 6.5819-5.3356 11.918-11.918 11.918-6.5819 0-11.918-5.3357-11.918-11.918 0-6.5819 5.3356-11.918 11.918-11.918 6.5819 0 11.918 5.3357 11.918 11.918z"/>
        <path id="path4624" transform="matrix(.23711 0 0 .23711 1386.3 996.43)" d="m1944.9 401.67c0 6.5819-5.3356 11.918-11.918 11.918-6.5819 0-11.918-5.3357-11.918-11.918 0-6.5819 5.3356-11.918 11.918-11.918 6.5819 0 11.918 5.3357 11.918 11.918z"/>
        <path id="path4626" transform="matrix(.17882 0 0 .17882 1984.8 1035.8)" d="m1944.9 401.67c0 6.5819-5.3356 11.918-11.918 11.918-6.5819 0-11.918-5.3357-11.918-11.918 0-6.5819 5.3356-11.918 11.918-11.918 6.5819 0 11.918 5.3357 11.918 11.918z"/>
        <path id="path4628" transform="matrix(.35308 0 0 .35308 1723.3 798.44)" d="m1944.9 401.67c0 6.5819-5.3356 11.918-11.918 11.918-6.5819 0-11.918-5.3357-11.918-11.918 0-6.5819 5.3356-11.918 11.918-11.918 6.5819 0 11.918 5.3357 11.918 11.918z"/>
        <path id="path4630" transform="matrix(.33296 0 0 .33296 1837.1 863.39)" d="m1944.9 401.67c0 6.5819-5.3356 11.918-11.918 11.918-6.5819 0-11.918-5.3357-11.918-11.918 0-6.5819 5.3356-11.918 11.918-11.918 6.5819 0 11.918 5.3357 11.918 11.918z"/>
        <path id="path4632" transform="matrix(.32683 0 0 .32683 1903.2 1079.6)" d="m1944.9 401.67c0 6.5819-5.3356 11.918-11.918 11.918-6.5819 0-11.918-5.3357-11.918-11.918 0-6.5819 5.3356-11.918 11.918-11.918 6.5819 0 11.918 5.3357 11.918 11.918z"/>
        <path id="path4634" transform="matrix(.188 0 0 .188 2129.4 1041.9)" d="m1944.9 401.67c0 6.5819-5.3356 11.918-11.918 11.918-6.5819 0-11.918-5.3357-11.918-11.918 0-6.5819 5.3356-11.918 11.918-11.918 6.5819 0 11.918 5.3357 11.918 11.918z"/>
        <path id="path4636" transform="matrix(.27087 0 0 .27087 2252.5 965.98)" d="m1944.9 401.67c0 6.5819-5.3356 11.918-11.918 11.918-6.5819 0-11.918-5.3357-11.918-11.918 0-6.5819 5.3356-11.918 11.918-11.918 6.5819 0 11.918 5.3357 11.918 11.918z"/>
        <path id="path4638" transform="matrix(.29268 0 0 .29268 2436 624.81)" d="m1944.9 401.67c0 6.5819-5.3356 11.918-11.918 11.918-6.5819 0-11.918-5.3357-11.918-11.918 0-6.5819 5.3356-11.918 11.918-11.918 6.5819 0 11.918 5.3357 11.918 11.918z"/>
        <path id="path4640" transform="matrix(.24674 0 0 .24674 2535.5 697.54)" d="m1944.9 401.67c0 6.5819-5.3356 11.918-11.918 11.918-6.5819 0-11.918-5.3357-11.918-11.918 0-6.5819 5.3356-11.918 11.918-11.918 6.5819 0 11.918 5.3357 11.918 11.918z"/>
        <path id="path4642" transform="matrix(.21204 0 0 .21204 2400.3 726.41)" d="m1944.9 401.67c0 6.5819-5.3356 11.918-11.918 11.918-6.5819 0-11.918-5.3357-11.918-11.918 0-6.5819 5.3356-11.918 11.918-11.918 6.5819 0 11.918 5.3357 11.918 11.918z"/>
        <path id="path4644" transform="matrix(.26139 0 0 .26139 2204.8 493.74)" d="m1944.9 401.67c0 6.5819-5.3356 11.918-11.918 11.918-6.5819 0-11.918-5.3357-11.918-11.918 0-6.5819 5.3356-11.918 11.918-11.918 6.5819 0 11.918 5.3357 11.918 11.918z"/>
        <path id="path4646" transform="matrix(.26922 0 0 .26922 2373.4 472.49)" d="m1944.9 401.67c0 6.5819-5.3356 11.918-11.918 11.918-6.5819 0-11.918-5.3357-11.918-11.918 0-6.5819 5.3356-11.918 11.918-11.918 6.5819 0 11.918 5.3357 11.918 11.918z"/>
        <path id="path4648" transform="matrix(.34482 0 0 .34482 2100.5 302.23)" d="m1944.9 401.67c0 6.5819-5.3356 11.918-11.918 11.918-6.5819 0-11.918-5.3357-11.918-11.918 0-6.5819 5.3356-11.918 11.918-11.918 6.5819 0 11.918 5.3357 11.918 11.918z"/>
        <path id="path4650" transform="matrix(.36140 0 0 .36140 1817.1 527.3)" d="m1944.9 401.67c0 6.5819-5.3356 11.918-11.918 11.918-6.5819 0-11.918-5.3357-11.918-11.918 0-6.5819 5.3356-11.918 11.918-11.918 6.5819 0 11.918 5.3357 11.918 11.918z"/>
        <path id="path4652" transform="matrix(.20711 0 0 .20711 2288.2 630.22)" d="m1944.9 401.67c0 6.5819-5.3356 11.918-11.918 11.918-6.5819 0-11.918-5.3357-11.918-11.918 0-6.5819 5.3356-11.918 11.918-11.918 6.5819 0 11.918 5.3357 11.918 11.918z"/>
        <path id="path4654" transform="matrix(.36126 0 0 .36126 2037.1 627.14)" d="m1944.9 401.67c0 6.5819-5.3356 11.918-11.918 11.918-6.5819 0-11.918-5.3357-11.918-11.918 0-6.5819 5.3356-11.918 11.918-11.918 6.5819 0 11.918 5.3357 11.918 11.918z"/>
        <path id="path4656" transform="matrix(.21422 0 0 .21422 2293.1 736.95)" d="m1944.9 401.67c0 6.5819-5.3356 11.918-11.918 11.918-6.5819 0-11.918-5.3357-11.918-11.918 0-6.5819 5.3356-11.918 11.918-11.918 6.5819 0 11.918 5.3357 11.918 11.918z"/>
        <path id="path4658" transform="matrix(.21621 0 0 .21621 2321.7 515.94)" d="m1944.9 401.67c0 6.5819-5.3356 11.918-11.918 11.918-6.5819 0-11.918-5.3357-11.918-11.918 0-6.5819 5.3356-11.918 11.918-11.918 6.5819 0 11.918 5.3357 11.918 11.918z"/>
        <path id="path4660" transform="matrix(.32628 0 0 .32628 2350.6 308.26)" d="m1944.9 401.67c0 6.5819-5.3356 11.918-11.918 11.918-6.5819 0-11.918-5.3357-11.918-11.918 0-6.5819 5.3356-11.918 11.918-11.918 6.5819 0 11.918 5.3357 11.918 11.918z"/>
        <path id="path4662" transform="matrix(.26435 0 0 .26435 2410.4 471.77)" d="m1944.9 401.67c0 6.5819-5.3356 11.918-11.918 11.918-6.5819 0-11.918-5.3357-11.918-11.918 0-6.5819 5.3356-11.918 11.918-11.918 6.5819 0 11.918 5.3357 11.918 11.918z"/>
        <path id="path4664" transform="matrix(.36603 0 0 .36603 2607 116.78)" d="m1944.9 401.67c0 6.5819-5.3356 11.918-11.918 11.918-6.5819 0-11.918-5.3357-11.918-11.918 0-6.5819 5.3356-11.918 11.918-11.918 6.5819 0 11.918 5.3357 11.918 11.918z"/>
        <path id="path4666" transform="matrix(.34313 0 0 .34313 2716.5 151.79)" d="m1944.9 401.67c0 6.5819-5.3356 11.918-11.918 11.918-6.5819 0-11.918-5.3357-11.918-11.918 0-6.5819 5.3356-11.918 11.918-11.918 6.5819 0 11.918 5.3357 11.918 11.918z"/>
        <path id="path4668" transform="matrix(.22495 0 0 .22495 2912.2 -302.5)" d="m1944.9 401.67c0 6.5819-5.3356 11.918-11.918 11.918-6.5819 0-11.918-5.3357-11.918-11.918 0-6.5819 5.3356-11.918 11.918-11.918 6.5819 0 11.918 5.3357 11.918 11.918z"/>
        <path id="path4672" transform="matrix(.26121 0 0 .26121 3091.9 -492.83)" d="m1944.9 401.67c0 6.5819-5.3356 11.918-11.918 11.918-6.5819 0-11.918-5.3357-11.918-11.918 0-6.5819 5.3356-11.918 11.918-11.918 6.5819 0 11.918 5.3357 11.918 11.918z"/>
        <path id="path4674" transform="matrix(.33736 0 0 .33736 2709.5 -489.83)" d="m1944.9 401.67c0 6.5819-5.3356 11.918-11.918 11.918-6.5819 0-11.918-5.3357-11.918-11.918 0-6.5819 5.3356-11.918 11.918-11.918 6.5819 0 11.918 5.3357 11.918 11.918z"/>
        <path id="path4676" transform="matrix(.22969 0 0 .22969 3054.8 -212.45)" d="m1944.9 401.67c0 6.5819-5.3356 11.918-11.918 11.918-6.5819 0-11.918-5.3357-11.918-11.918 0-6.5819 5.3356-11.918 11.918-11.918 6.5819 0 11.918 5.3357 11.918 11.918z"/>
        <path id="path4678" transform="matrix(.20542 0 0 .20542 3119.3 -126.2)" d="m1944.9 401.67c0 6.5819-5.3356 11.918-11.918 11.918-6.5819 0-11.918-5.3357-11.918-11.918 0-6.5819 5.3356-11.918 11.918-11.918 6.5819 0 11.918 5.3357 11.918 11.918z"/>
        <path id="path4680" transform="matrix(.19284 0 0 .19284 3172.2 99.295)" d="m1944.9 401.67c0 6.5819-5.3356 11.918-11.918 11.918-6.5819 0-11.918-5.3357-11.918-11.918 0-6.5819 5.3356-11.918 11.918-11.918 6.5819 0 11.918 5.3357 11.918 11.918z"/>
        <path id="path4684" transform="matrix(.20018 0 0 .20018 3085.6 -74.866)" d="m1944.9 401.67c0 6.5819-5.3356 11.918-11.918 11.918-6.5819 0-11.918-5.3357-11.918-11.918 0-6.5819 5.3356-11.918 11.918-11.918 6.5819 0 11.918 5.3357 11.918 11.918z"/>
        <path id="path4696" transform="matrix(.27743 0 0 .27743 3082.4 198.92)" d="m1944.9 401.67c0 6.5819-5.3356 11.918-11.918 11.918-6.5819 0-11.918-5.3357-11.918-11.918 0-6.5819 5.3356-11.918 11.918-11.918 6.5819 0 11.918 5.3357 11.918 11.918z"/>
        <path id="path4698" transform="matrix(.32055 0 0 .32055 2798.9 -12.947)" d="m1944.9 401.67c0 6.5819-5.3356 11.918-11.918 11.918-6.5819 0-11.918-5.3357-11.918-11.918 0-6.5819 5.3356-11.918 11.918-11.918 6.5819 0 11.918 5.3357 11.918 11.918z"/>
        <path id="path4700" transform="matrix(.29451 0 0 .29451 3021.1 -206.26)" d="m1944.9 401.67c0 6.5819-5.3356 11.918-11.918 11.918-6.5819 0-11.918-5.3357-11.918-11.918 0-6.5819 5.3356-11.918 11.918-11.918 6.5819 0 11.918 5.3357 11.918 11.918z"/>
        <path id="path4702" transform="matrix(.31373 0 0 .31373 2759.4 -17.701)" d="m1944.9 401.67c0 6.5819-5.3356 11.918-11.918 11.918-6.5819 0-11.918-5.3357-11.918-11.918 0-6.5819 5.3356-11.918 11.918-11.918 6.5819 0 11.918 5.3357 11.918 11.918z"/>
        <path id="path4704" transform="matrix(.24561 0 0 .24561 2990 -209.72)" d="m1944.9 401.67c0 6.5819-5.3356 11.918-11.918 11.918-6.5819 0-11.918-5.3357-11.918-11.918 0-6.5819 5.3356-11.918 11.918-11.918 6.5819 0 11.918 5.3357 11.918 11.918z"/>
        <path id="path4706" transform="matrix(.33631 0 0 .33631 2227.8 -48.329)" d="m1944.9 401.67c0 6.5819-5.3356 11.918-11.918 11.918-6.5819 0-11.918-5.3357-11.918-11.918 0-6.5819 5.3356-11.918 11.918-11.918 6.5819 0 11.918 5.3357 11.918 11.918z"/>
        <path id="path4708" transform="matrix(.28107 0 0 .28107 1949.7 -234.18)" d="m1944.9 401.67c0 6.5819-5.3356 11.918-11.918 11.918-6.5819 0-11.918-5.3357-11.918-11.918 0-6.5819 5.3356-11.918 11.918-11.918 6.5819 0 11.918 5.3357 11.918 11.918z"/>
        <path id="path4710" transform="matrix(.38097 0 0 .38097 1631.7 -244.1)" d="m1944.9 401.67c0 6.5819-5.3356 11.918-11.918 11.918-6.5819 0-11.918-5.3357-11.918-11.918 0-6.5819 5.3356-11.918 11.918-11.918 6.5819 0 11.918 5.3357 11.918 11.918z"/>
        <path id="path4712" transform="matrix(.16862 0 0 .16862 2051.5 35.495)" d="m1944.9 401.67c0 6.5819-5.3356 11.918-11.918 11.918-6.5819 0-11.918-5.3357-11.918-11.918 0-6.5819 5.3356-11.918 11.918-11.918 6.5819 0 11.918 5.3357 11.918 11.918z"/>
        <path id="path4714" transform="matrix(.27093 0 0 .27093 1302.3 -20.335)" d="m1944.9 401.67c0 6.5819-5.3356 11.918-11.918 11.918-6.5819 0-11.918-5.3357-11.918-11.918 0-6.5819 5.3356-11.918 11.918-11.918 6.5819 0 11.918 5.3357 11.918 11.918z"/>
        <path id="path4716" transform="matrix(.19881 0 0 .19881 1823.7 157.46)" d="m1944.9 401.67c0 6.5819-5.3356 11.918-11.918 11.918-6.5819 0-11.918-5.3357-11.918-11.918 0-6.5819 5.3356-11.918 11.918-11.918 6.5819 0 11.918 5.3357 11.918 11.918z"/>
        <path id="path4718" transform="matrix(.24403 0 0 .24403 1433.9 -127.04)" d="m1944.9 401.67c0 6.5819-5.3356 11.918-11.918 11.918-6.5819 0-11.918-5.3357-11.918-11.918 0-6.5819 5.3356-11.918 11.918-11.918 6.5819 0 11.918 5.3357 11.918 11.918z"/>
        <path id="path4720" transform="matrix(.19406 0 0 .19406 1847 159.37)" d="m1944.9 401.67c0 6.5819-5.3356 11.918-11.918 11.918-6.5819 0-11.918-5.3357-11.918-11.918 0-6.5819 5.3356-11.918 11.918-11.918 6.5819 0 11.918 5.3357 11.918 11.918z"/>
        <path id="path4722" transform="matrix(.26371 0 0 .26371 1401 441.73)" d="m1944.9 401.67c0 6.5819-5.3356 11.918-11.918 11.918-6.5819 0-11.918-5.3357-11.918-11.918 0-6.5819 5.3356-11.918 11.918-11.918 6.5819 0 11.918 5.3357 11.918 11.918z"/>
        <path id="path4724" transform="matrix(.25916 0 0 .25916 1418.3 655.41)" d="m1944.9 401.67c0 6.5819-5.3356 11.918-11.918 11.918-6.5819 0-11.918-5.3357-11.918-11.918 0-6.5819 5.3356-11.918 11.918-11.918 6.5819 0 11.918 5.3357 11.918 11.918z"/>
        <path id="path4726" transform="matrix(.22465 0 0 .22465 1376.4 525.92)" d="m1944.9 401.67c0 6.5819-5.3356 11.918-11.918 11.918-6.5819 0-11.918-5.3357-11.918-11.918 0-6.5819 5.3356-11.918 11.918-11.918 6.5819 0 11.918 5.3357 11.918 11.918z"/>
        <path id="path4728" transform="matrix(.19260 0 0 .19260 1564.1 420.87)" d="m1944.9 401.67c0 6.5819-5.3356 11.918-11.918 11.918-6.5819 0-11.918-5.3357-11.918-11.918 0-6.5819 5.3356-11.918 11.918-11.918 6.5819 0 11.918 5.3357 11.918 11.918z"/>
        <path id="path4730" transform="matrix(.23368 0 0 .23368 1345.1 542.79)" d="m1944.9 401.67c0 6.5819-5.3356 11.918-11.918 11.918-6.5819 0-11.918-5.3357-11.918-11.918 0-6.5819 5.3356-11.918 11.918-11.918 6.5819 0 11.918 5.3357 11.918 11.918z"/>
        <path id="path4732" transform="matrix(.37551 0 0 .37551 1151.3 474.33)" d="m1944.9 401.67c0 6.5819-5.3356 11.918-11.918 11.918-6.5819 0-11.918-5.3357-11.918-11.918 0-6.5819 5.3356-11.918 11.918-11.918 6.5819 0 11.918 5.3357 11.918 11.918z"/>
        <path id="path4734" transform="matrix(.35641 0 0 .35641 1464.6 333.84)" d="m1944.9 401.67c0 6.5819-5.3356 11.918-11.918 11.918-6.5819 0-11.918-5.3357-11.918-11.918 0-6.5819 5.3356-11.918 11.918-11.918 6.5819 0 11.918 5.3357 11.918 11.918z"/>
        <path id="path4736" transform="matrix(.34416 0 0 .34416 1291.1 273.7)" d="m1944.9 401.67c0 6.5819-5.3356 11.918-11.918 11.918-6.5819 0-11.918-5.3357-11.918-11.918 0-6.5819 5.3356-11.918 11.918-11.918 6.5819 0 11.918 5.3357 11.918 11.918z"/>
        <path id="path4738" transform="matrix(.36185 0 0 .36185 1283.4 -65.309)" d="m1944.9 401.67c0 6.5819-5.3356 11.918-11.918 11.918-6.5819 0-11.918-5.3357-11.918-11.918 0-6.5819 5.3356-11.918 11.918-11.918 6.5819 0 11.918 5.3357 11.918 11.918z"/>
        <path id="path4740" transform="matrix(.15086 0 0 .15086 1505.8 26.613)" d="m1944.9 401.67c0 6.5819-5.3356 11.918-11.918 11.918-6.5819 0-11.918-5.3357-11.918-11.918 0-6.5819 5.3356-11.918 11.918-11.918 6.5819 0 11.918 5.3357 11.918 11.918z"/>
        <path id="path4742" transform="matrix(.26553 0 0 .26553 1563.7 40.943)" d="m1944.9 401.67c0 6.5819-5.3356 11.918-11.918 11.918-6.5819 0-11.918-5.3357-11.918-11.918 0-6.5819 5.3356-11.918 11.918-11.918 6.5819 0 11.918 5.3357 11.918 11.918z"/>
        <path id="path4744" transform="matrix(.22056 0 0 .22056 1598.1 -179.46)" d="m1944.9 401.67c0 6.5819-5.3356 11.918-11.918 11.918-6.5819 0-11.918-5.3357-11.918-11.918 0-6.5819 5.3356-11.918 11.918-11.918 6.5819 0 11.918 5.3357 11.918 11.918z"/>
        <path id="path4746" transform="matrix(.31585 0 0 .31585 1317.8 -250.59)" d="m1944.9 401.67c0 6.5819-5.3356 11.918-11.918 11.918-6.5819 0-11.918-5.3357-11.918-11.918 0-6.5819 5.3356-11.918 11.918-11.918 6.5819 0 11.918 5.3357 11.918 11.918z"/>
        <path id="path4748" transform="matrix(.32430 0 0 .32430 1338.4 -392.71)" d="m1944.9 401.67c0 6.5819-5.3356 11.918-11.918 11.918-6.5819 0-11.918-5.3357-11.918-11.918 0-6.5819 5.3356-11.918 11.918-11.918 6.5819 0 11.918 5.3357 11.918 11.918z"/>
        <path id="path4750" transform="matrix(.13862 0 0 .13862 1750.4 -449.34)" d="m1944.9 401.67c0 6.5819-5.3356 11.918-11.918 11.918-6.5819 0-11.918-5.3357-11.918-11.918 0-6.5819 5.3356-11.918 11.918-11.918 6.5819 0 11.918 5.3357 11.918 11.918z"/>
        <path id="path4758" transform="matrix(.21172 0 0 .21172 1558.8 -421.66)" d="m1944.9 401.67c0 6.5819-5.3356 11.918-11.918 11.918-6.5819 0-11.918-5.3357-11.918-11.918 0-6.5819 5.3356-11.918 11.918-11.918 6.5819 0 11.918 5.3357 11.918 11.918z"/>
        <path id="path4760" transform="matrix(.37726 0 0 .37726 1190.9 -359.47)" d="m1944.9 401.67c0 6.5819-5.3356 11.918-11.918 11.918-6.5819 0-11.918-5.3357-11.918-11.918 0-6.5819 5.3356-11.918 11.918-11.918 6.5819 0 11.918 5.3357 11.918 11.918z"/>
        <path id="path4762" transform="matrix(.23519 0 0 .23519 1373.5 -228.19)" d="m1944.9 401.67c0 6.5819-5.3356 11.918-11.918 11.918-6.5819 0-11.918-5.3357-11.918-11.918 0-6.5819 5.3356-11.918 11.918-11.918 6.5819 0 11.918 5.3357 11.918 11.918z"/>
        <path id="path4764" transform="matrix(.20242 0 0 .20242 1651.7 -80.558)" d="m1944.9 401.67c0 6.5819-5.3356 11.918-11.918 11.918-6.5819 0-11.918-5.3357-11.918-11.918 0-6.5819 5.3356-11.918 11.918-11.918 6.5819 0 11.918 5.3357 11.918 11.918z"/>
        <path id="path4776" transform="matrix(.23465 0 0 .23465 1814 -489.3)" d="m1944.9 401.67c0 6.5819-5.3356 11.918-11.918 11.918-6.5819 0-11.918-5.3357-11.918-11.918 0-6.5819 5.3356-11.918 11.918-11.918 6.5819 0 11.918 5.3357 11.918 11.918z"/>
        <path id="path4786" transform="matrix(.24661 0 0 .24661 1592.7 100.97)" d="m1944.9 401.67c0 6.5819-5.3356 11.918-11.918 11.918-6.5819 0-11.918-5.3357-11.918-11.918 0-6.5819 5.3356-11.918 11.918-11.918 6.5819 0 11.918 5.3357 11.918 11.918z"/>
        <path id="path4788" transform="matrix(.24031 0 0 .24031 1576.6 236.78)" d="m1944.9 401.67c0 6.5819-5.3356 11.918-11.918 11.918-6.5819 0-11.918-5.3357-11.918-11.918 0-6.5819 5.3356-11.918 11.918-11.918 6.5819 0 11.918 5.3357 11.918 11.918z"/>
        <path id="path4790" transform="matrix(.15711 0 0 .15711 1677.2 449.47)" d="m1944.9 401.67c0 6.5819-5.3356 11.918-11.918 11.918-6.5819 0-11.918-5.3357-11.918-11.918 0-6.5819 5.3356-11.918 11.918-11.918 6.5819 0 11.918 5.3357 11.918 11.918z"/>
        <path id="path4792" transform="matrix(.22370 0 0 .22370 1346.8 490.22)" d="m1944.9 401.67c0 6.5819-5.3356 11.918-11.918 11.918-6.5819 0-11.918-5.3357-11.918-11.918 0-6.5819 5.3356-11.918 11.918-11.918 6.5819 0 11.918 5.3357 11.918 11.918z"/>
        <path id="path4794" transform="matrix(.18195 0 0 .18195 1625.2 456.92)" d="m1944.9 401.67c0 6.5819-5.3356 11.918-11.918 11.918-6.5819 0-11.918-5.3357-11.918-11.918 0-6.5819 5.3356-11.918 11.918-11.918 6.5819 0 11.918 5.3357 11.918 11.918z"/>
        <path id="path4798" transform="matrix(.19137 0 0 .19137 1480.7 689.66)" d="m1944.9 401.67c0 6.5819-5.3356 11.918-11.918 11.918-6.5819 0-11.918-5.3357-11.918-11.918 0-6.5819 5.3356-11.918 11.918-11.918 6.5819 0 11.918 5.3357 11.918 11.918z"/>
        <path id="path4800" transform="matrix(.37989 0 0 .37989 1036.6 525.39)" d="m1944.9 401.67c0 6.5819-5.3356 11.918-11.918 11.918-6.5819 0-11.918-5.3357-11.918-11.918 0-6.5819 5.3356-11.918 11.918-11.918 6.5819 0 11.918 5.3357 11.918 11.918z"/>
        <path id="path4802" transform="matrix(.22681 0 0 .22681 1390.9 620.2)" d="m1944.9 401.67c0 6.5819-5.3356 11.918-11.918 11.918-6.5819 0-11.918-5.3357-11.918-11.918 0-6.5819 5.3356-11.918 11.918-11.918 6.5819 0 11.918 5.3357 11.918 11.918z"/>
        <path id="path4804" transform="matrix(.24183 0 0 .24183 1501.8 606.6)" d="m1944.9 401.67c0 6.5819-5.3356 11.918-11.918 11.918-6.5819 0-11.918-5.3357-11.918-11.918 0-6.5819 5.3356-11.918 11.918-11.918 6.5819 0 11.918 5.3357 11.918 11.918z"/>
        <path id="path4806" transform="matrix(.16352 0 0 .16352 1504.2 347.62)" d="m1944.9 401.67c0 6.5819-5.3356 11.918-11.918 11.918-6.5819 0-11.918-5.3357-11.918-11.918 0-6.5819 5.3356-11.918 11.918-11.918 6.5819 0 11.918 5.3357 11.918 11.918z"/>
        <path id="path4808" transform="matrix(.18410 0 0 .18410 1643.2 456.83)" d="m1944.9 401.67c0 6.5819-5.3356 11.918-11.918 11.918-6.5819 0-11.918-5.3357-11.918-11.918 0-6.5819 5.3356-11.918 11.918-11.918 6.5819 0 11.918 5.3357 11.918 11.918z"/>
        <path id="path4810" transform="matrix(.16631 0 0 .16631 1796.5 215.44)" d="m1944.9 401.67c0 6.5819-5.3356 11.918-11.918 11.918-6.5819 0-11.918-5.3357-11.918-11.918 0-6.5819 5.3356-11.918 11.918-11.918 6.5819 0 11.918 5.3357 11.918 11.918z"/>
        <path id="path4812" transform="matrix(.16256 0 0 .16256 1582.1 298.13)" d="m1944.9 401.67c0 6.5819-5.3356 11.918-11.918 11.918-6.5819 0-11.918-5.3357-11.918-11.918 0-6.5819 5.3356-11.918 11.918-11.918 6.5819 0 11.918 5.3357 11.918 11.918z"/>
        <path id="path4816" transform="matrix(.25362 0 0 .25362 1416.3 190.81)" d="m1944.9 401.67c0 6.5819-5.3356 11.918-11.918 11.918-6.5819 0-11.918-5.3357-11.918-11.918 0-6.5819 5.3356-11.918 11.918-11.918 6.5819 0 11.918 5.3357 11.918 11.918z"/>
        <path id="path4818" transform="matrix(.29243 0 0 .29243 1395.9 -268.37)" d="m1944.9 401.67c0 6.5819-5.3356 11.918-11.918 11.918-6.5819 0-11.918-5.3357-11.918-11.918 0-6.5819 5.3356-11.918 11.918-11.918 6.5819 0 11.918 5.3357 11.918 11.918z"/>
        <path id="path4820" transform="matrix(.36957 0 0 .36957 1280.9 -155.39)" d="m1944.9 401.67c0 6.5819-5.3356 11.918-11.918 11.918-6.5819 0-11.918-5.3357-11.918-11.918 0-6.5819 5.3356-11.918 11.918-11.918 6.5819 0 11.918 5.3357 11.918 11.918z"/>
        <path id="path4822" transform="matrix(.24358 0 0 .24358 1867.1 -64.468)" d="m1944.9 401.67c0 6.5819-5.3356 11.918-11.918 11.918-6.5819 0-11.918-5.3357-11.918-11.918 0-6.5819 5.3356-11.918 11.918-11.918 6.5819 0 11.918 5.3357 11.918 11.918z"/>
        <path id="path4824" transform="matrix(.28536 0 0 .28536 1834.7 -140.44)" d="m1944.9 401.67c0 6.5819-5.3356 11.918-11.918 11.918-6.5819 0-11.918-5.3357-11.918-11.918 0-6.5819 5.3356-11.918 11.918-11.918 6.5819 0 11.918 5.3357 11.918 11.918z"/>
        <path id="path4826" transform="matrix(.17002 0 0 .17002 2030.9 -184.36)" d="m1944.9 401.67c0 6.5819-5.3356 11.918-11.918 11.918-6.5819 0-11.918-5.3357-11.918-11.918 0-6.5819 5.3356-11.918 11.918-11.918 6.5819 0 11.918 5.3357 11.918 11.918z"/>
        <path id="path4828" transform="matrix(.31533 0 0 .31533 2334.6 -245.91)" d="m1944.9 401.67c0 6.5819-5.3356 11.918-11.918 11.918-6.5819 0-11.918-5.3357-11.918-11.918 0-6.5819 5.3356-11.918 11.918-11.918 6.5819 0 11.918 5.3357 11.918 11.918z"/>
        <path id="path4830" transform="matrix(.15246 0 0 .15246 2673.4 -473.55)" d="m1944.9 401.67c0 6.5819-5.3356 11.918-11.918 11.918-6.5819 0-11.918-5.3357-11.918-11.918 0-6.5819 5.3356-11.918 11.918-11.918 6.5819 0 11.918 5.3357 11.918 11.918z"/>
        <path id="path4832" transform="matrix(.33975 0 0 .33975 2411.3 -255.28)" d="m1944.9 401.67c0 6.5819-5.3356 11.918-11.918 11.918-6.5819 0-11.918-5.3357-11.918-11.918 0-6.5819 5.3356-11.918 11.918-11.918 6.5819 0 11.918 5.3357 11.918 11.918z"/>
        <path id="path4834" transform="matrix(.29118 0 0 .29118 2674.8 -504.84)" d="m1944.9 401.67c0 6.5819-5.3356 11.918-11.918 11.918-6.5819 0-11.918-5.3357-11.918-11.918 0-6.5819 5.3356-11.918 11.918-11.918 6.5819 0 11.918 5.3357 11.918 11.918z"/>
        <path id="path4836" transform="matrix(.31646 0 0 .31646 2715.3 -249.42)" d="m1944.9 401.67c0 6.5819-5.3356 11.918-11.918 11.918-6.5819 0-11.918-5.3357-11.918-11.918 0-6.5819 5.3356-11.918 11.918-11.918 6.5819 0 11.918 5.3357 11.918 11.918z"/>
        <path id="path4838" transform="matrix(.19950 0 0 .19950 3144 -247.2)" d="m1944.9 401.67c0 6.5819-5.3356 11.918-11.918 11.918-6.5819 0-11.918-5.3357-11.918-11.918 0-6.5819 5.3356-11.918 11.918-11.918 6.5819 0 11.918 5.3357 11.918 11.918z"/>
        <path id="path4840" transform="matrix(.16648 0 0 .16648 2776.9 96.497)" d="m1944.9 401.67c0 6.5819-5.3356 11.918-11.918 11.918-6.5819 0-11.918-5.3357-11.918-11.918 0-6.5819 5.3356-11.918 11.918-11.918 6.5819 0 11.918 5.3357 11.918 11.918z"/>
        <path id="path4842" transform="matrix(.23561 0 0 .23561 2790.9 -120.57)" d="m1944.9 401.67c0 6.5819-5.3356 11.918-11.918 11.918-6.5819 0-11.918-5.3357-11.918-11.918 0-6.5819 5.3356-11.918 11.918-11.918 6.5819 0 11.918 5.3357 11.918 11.918z"/>
        <path id="path4844" transform="matrix(.33186 0 0 .33186 2549.2 -50.522)" d="m1944.9 401.67c0 6.5819-5.3356 11.918-11.918 11.918-6.5819 0-11.918-5.3357-11.918-11.918 0-6.5819 5.3356-11.918 11.918-11.918 6.5819 0 11.918 5.3357 11.918 11.918z"/>
        <path id="path4846" transform="matrix(.17653 0 0 .17653 3041.3 182.69)" d="m1944.9 401.67c0 6.5819-5.3356 11.918-11.918 11.918-6.5819 0-11.918-5.3357-11.918-11.918 0-6.5819 5.3356-11.918 11.918-11.918 6.5819 0 11.918 5.3357 11.918 11.918z"/>
        <path id="path4848" transform="matrix(.19539 0 0 .19539 2376.8 631.76)" d="m1944.9 401.67c0 6.5819-5.3356 11.918-11.918 11.918-6.5819 0-11.918-5.3357-11.918-11.918 0-6.5819 5.3356-11.918 11.918-11.918 6.5819 0 11.918 5.3357 11.918 11.918z"/>
        <path id="path4850" transform="matrix(.25521 0 0 .25521 2285.3 712.28)" d="m1944.9 401.67c0 6.5819-5.3356 11.918-11.918 11.918-6.5819 0-11.918-5.3357-11.918-11.918 0-6.5819 5.3356-11.918 11.918-11.918 6.5819 0 11.918 5.3357 11.918 11.918z"/>
        <path id="path4852" transform="matrix(.28852 0 0 .28852 2230.1 394.14)" d="m1944.9 401.67c0 6.5819-5.3356 11.918-11.918 11.918-6.5819 0-11.918-5.3357-11.918-11.918 0-6.5819 5.3356-11.918 11.918-11.918 6.5819 0 11.918 5.3357 11.918 11.918z"/>
      </g>
      <path id="path3004" d="M 1716 1472.199 L 3636 1472.199 L 1716 1472.199 Z"/>
    </g>
  </g>
</svg>