<?xml version="1.0" encoding="UTF-8" standalone="no"?>
<svg
   viewBox="-50 0 563.59646 451.07603"
   version="1.1"
   id="svg36"
   sodipodi:docname="white-overlay-stagger-right.svg"
   inkscape:version="1.1.1 (3bf5ae0d25, 2021-09-20)"
   width="563.59644"
   height="451.07602"
   preserveAspectRatio="none"
   xmlns:inkscape="http://www.inkscape.org/namespaces/inkscape"
   xmlns:sodipodi="http://sodipodi.sourceforge.net/DTD/sodipodi-0.dtd"
   xmlns="http://www.w3.org/2000/svg"
   xmlns:svg="http://www.w3.org/2000/svg"
   xmlns:bx="https://boxy-svg.com">
  <sodipodi:namedview
     id="namedview38"
     pagecolor="#505050"
     bordercolor="#ffffff"
     borderopacity="1"
     inkscape:pageshadow="0"
     inkscape:pageopacity="0"
     inkscape:pagecheckerboard="1"
     showgrid="false"
     inkscape:zoom="1.3159908"
     inkscape:cx="310.4125"
     inkscape:cy="267.85901"
     inkscape:window-width="1920"
     inkscape:window-height="1017"
     inkscape:window-x="-8"
     inkscape:window-y="-8"
     inkscape:window-maximized="1"
     inkscape:current-layer="svg36"
     fit-margin-top="0"
     fit-margin-left="0"
     fit-margin-right="0"
     fit-margin-bottom="0" />
  <defs
     id="defs2">
    <bx:grid
       x="-48.108"
       y="0.846"
       width="96.251"
       height="82.007" />
  </defs>
  <rect
     y="56.417999"
     width="429.67334"
     height="30.268"
     style="fill:#d8d8d8;stroke:none;stroke-width:0.748262"
     x="-400.95016"
     id="rect4"
     transform="scale(-1,1)" />
  <rect
     y="84.606003"
     width="402.50922"
     height="30.268"
     style="fill:#d8d8d8;stroke:none;stroke-width:0.748201"
     x="-363.14761"
     id="rect6"
     transform="scale(-1,1)" />
  <rect
     width="402.84235"
     height="30.268"
     style="fill:#d8d8d8;stroke:none;stroke-width:0.748509"
     x="-374.11914"
     id="rect8"
     y="0"
     transform="scale(-1,1)" />
  <rect
     y="28.188"
     width="474.80811"
     height="30.268"
     style="fill:#d8d8d8;stroke:none;stroke-width:0.768498"
     x="-455.20355"
     id="rect10"
     transform="scale(-1,1)" />
  <rect
     y="168.836"
     width="420.69003"
     height="30.268"
     style="fill:#d8d8d8;stroke:none;stroke-width:0.723377"
     x="-399.56567"
     id="rect12"
     transform="scale(-1,1)" />
  <rect
     y="197.024"
     width="470.08313"
     height="30.268"
     style="fill:#d8d8d8;stroke:none;stroke-width:0.782658"
     x="-432.2413"
     id="rect14"
     transform="scale(-1,1)" />
  <rect
     width="427.0271"
     height="30.268"
     style="fill:#d8d8d8;stroke:none;stroke-width:0.736618"
     y="112.418"
     x="-377.02713"
     id="rect16"
     transform="scale(-1,1)" />
  <rect
     y="140.606"
     width="392.81961"
     height="30.268"
     style="fill:#d8d8d8;stroke:none;stroke-width:0.727939"
     x="-353.45804"
     id="rect18"
     transform="scale(-1,1)" />
  <rect
     y="280.202"
     width="393.40881"
     height="30.268"
     style="fill:#d8d8d8;stroke:none;stroke-width:0.707029"
     x="-343.40887"
     id="rect20"
     transform="scale(-1,1)" />
  <rect
     y="308.39001"
     width="422.99518"
     height="30.268"
     style="fill:#d8d8d8;stroke:none;stroke-width:0.742424"
     x="-379.07425"
     id="rect22"
     transform="scale(-1,1)" />
  <rect
     width="428.77057"
     height="30.268"
     style="fill:#d8d8d8;stroke:none;stroke-width:0.772223"
     y="223.784"
     x="-378.7706"
     id="rect24"
     transform="scale(-1,1)" />
  <rect
     y="251.97198"
     width="447.79541"
     height="30.268"
     style="fill:#d8d8d8;stroke:none;stroke-width:0.777213"
     x="-403.87451"
     id="rect26"
     transform="scale(-1,1)" />
  <rect
     y="392.62"
     width="438.27878"
     height="30.268"
     style="fill:#d8d8d8;stroke:none;stroke-width:0.755718"
     x="-409.55551"
     id="rect28"
     transform="scale(-1,1)" />
  <rect
     y="420.80801"
     width="404.51129"
     height="30.268"
     style="fill:#d8d8d8;stroke:none;stroke-width:0.70933"
     x="-389.46603"
     id="rect30"
     transform="scale(-1,1)" />
  <rect
     width="428.86621"
     height="30.268"
     style="fill:#d8d8d8;stroke:none;stroke-width:0.785244"
     y="336.202"
     x="-396.3436"
     id="rect32"
     transform="scale(-1,1)" />
  <rect
     y="364.39001"
     width="489.13376"
     height="30.268"
     style="fill:#d8d8d8;stroke:none;stroke-width:0.812294"
     x="-439.13385"
     id="rect34"
     transform="scale(-1,1)" />
  <rect
     y="56.418007"
     width="21.789209"
     height="30.268"
     style="fill:#d8d8d8;stroke:none;stroke-width:0.168502"
     x="-430.04688"
     id="rect4-0"
     transform="scale(-1,1)" />
  <rect
     y="84.60601"
     width="36.037495"
     height="30.268"
     style="fill:#d8d8d8;stroke:none;stroke-width:0.223877"
     x="-417.64313"
     id="rect6-9"
     transform="scale(-1,1)" />
  <rect
     y="82.150009"
     width="30.232693"
     height="30.268"
     style="fill:#d8d8d8;stroke:none;stroke-width:0.205054"
     x="-460.29889"
     id="rect6-9-6"
     transform="scale(-1,1)" />
  <rect
     width="33.983204"
     height="30.268"
     style="fill:#d8d8d8;stroke:none;stroke-width:0.217401"
     x="-423.43698"
     id="rect8-0"
     y="7.6293945e-06"
     transform="scale(-1,1)" />
  <rect
     y="28.188011"
     width="24.41065"
     height="30.268"
     style="fill:#d8d8d8;stroke:none;stroke-width:0.17425"
     x="-473.80176"
     id="rect10-0"
     transform="scale(-1,1)" />
  <rect
     y="168.83601"
     width="33.380978"
     height="30.268"
     style="fill:#d8d8d8;stroke:none;stroke-width:0.203767"
     x="-460.77457"
     id="rect12-7"
     transform="scale(-1,1)" />
  <rect
     y="197.02402"
     width="23.301153"
     height="30.268"
     style="fill:#d8d8d8;stroke:none;stroke-width:0.17425"
     x="-500.89804"
     id="rect14-7"
     transform="scale(-1,1)" />
  <rect
     width="48.317745"
     height="30.268"
     style="fill:#d8d8d8;stroke:none;stroke-width:0.24778"
     y="112.41801"
     x="-438.29288"
     id="rect16-1"
     transform="scale(-1,1)" />
  <rect
     y="140.60602"
     width="53.876766"
     height="30.268"
     style="fill:#d8d8d8;stroke:none;stroke-width:0.269588"
     x="-500.6171"
     id="rect18-7"
     transform="scale(-1,1)" />
  <rect
     y="280.202"
     width="19.008905"
     height="30.268"
     style="fill:#d8d8d8;stroke:none;stroke-width:0.155416"
     x="-497.78107"
     id="rect20-3"
     transform="scale(-1,1)" />
  <rect
     y="308.39001"
     width="52.109169"
     height="30.268"
     style="fill:#d8d8d8;stroke:none;stroke-width:0.260581"
     x="-446.26392"
     id="rect22-8"
     transform="scale(-1,1)" />
  <rect
     width="36.93819"
     height="30.268"
     style="fill:#d8d8d8;stroke:none;stroke-width:0.226655"
     y="223.78401"
     x="-441.97726"
     id="rect24-8"
     transform="scale(-1,1)" />
  <rect
     y="251.972"
     width="41.577545"
     height="30.268"
     style="fill:#d8d8d8;stroke:none;stroke-width:0.236826"
     x="-471.32162"
     id="rect26-9"
     transform="scale(-1,1)" />
  <rect
     y="392.62"
     width="31.647755"
     height="30.268"
     style="fill:#d8d8d8;stroke:none;stroke-width:0.203074"
     x="-446.95685"
     id="rect28-5"
     transform="scale(-1,1)" />
  <rect
     y="420.75958"
     width="8.9206591"
     height="30.268"
     style="fill:#d8d8d8;stroke:none;stroke-width:0.107816"
     x="41.626465"
     id="rect28-5-9"
     transform="scale(-1,1)" />
  <rect
     y="27.919994"
     width="8.9206591"
     height="30.268"
     style="fill:#d8d8d8;stroke:none;stroke-width:0.107816"
     x="41.200771"
     id="rect28-5-9-4"
     transform="scale(-1,1)" />
  <rect
     y="420.80801"
     width="76.156693"
     height="30.268"
     style="fill:#d8d8d8;stroke:none;stroke-width:0.307778"
     x="-470.62543"
     id="rect30-5"
     transform="scale(-1,1)" />
  <rect
     width="40.320614"
     height="30.268"
     style="fill:#d8d8d8;stroke:none;stroke-width:0.240773"
     y="336.202"
     x="-470.95773"
     id="rect32-3"
     transform="scale(-1,1)" />
  <rect
     y="364.39001"
     width="31.29854"
     height="30.268"
     style="fill:#d8d8d8;stroke:none;stroke-width:0.205477"
     x="-513.59644"
     id="rect34-7"
     transform="scale(-1,1)" />
</svg>
