<?xml version="1.0" encoding="utf-8"?>
<svg viewBox="-50 0 803.957 481.076" xmlns="http://www.w3.org/2000/svg" xmlns:bx="https://boxy-svg.com">
  <defs>
    <bx:grid x="-48.108" y="0.846" width="96.251" height="82.007"/>
  </defs>
  <rect y="60.418" width="803.957" height="30.268" style="fill: rgb(216, 216, 216);" x="-50"/>
  <rect y="90.606" width="803.957" height="30.268" style="fill: rgb(216, 216, 216);" x="-50"/>
  <rect width="803.957" height="30.268" style="fill: rgb(216, 216, 216);" x="-50"/>
  <rect y="30.188" width="803.957" height="30.268" style="fill: rgb(216, 216, 216);" x="-50"/>
  <rect y="180.836" width="803.957" height="30.268" style="fill: rgb(216, 216, 216);" x="-50"/>
  <rect y="211.024" width="803.957" height="30.268" style="fill: rgb(216, 216, 216);" x="-50"/>
  <rect width="803.957" height="30.268" style="fill: rgb(216, 216, 216);" y="120.418" x="-50"/>
  <rect y="150.606" width="803.957" height="30.268" style="fill: rgb(216, 216, 216);" x="-50"/>
  <rect y="300.202" width="803.957" height="30.268" style="fill: rgb(216, 216, 216);" x="-50"/>
  <rect y="330.39" width="803.957" height="30.268" style="fill: rgb(216, 216, 216);" x="-50"/>
  <rect width="803.957" height="30.268" style="fill: rgb(216, 216, 216);" y="239.784" x="-50"/>
  <rect y="269.972" width="803.957" height="30.268" style="fill: rgb(216, 216, 216);" x="-50"/>
  <rect y="420.62" width="803.957" height="30.268" style="fill: rgb(216, 216, 216);" x="-50"/>
  <rect y="450.808" width="803.957" height="30.268" style="fill: rgb(216, 216, 216);" x="-50"/>
  <rect width="803.957" height="30.268" style="fill: rgb(216, 216, 216);" y="360.202" x="-50"/>
  <rect y="390.39" width="803.957" height="30.268" style="fill: rgb(216, 216, 216);" x="-50"/>
</svg>